<?xml version="1.0" standalone="no"?>
<!DOCTYPE svg PUBLIC "-//W3C//DTD SVG 1.1//EN" "http://www.w3.org/Graphics/SVG/1.1/DTD/svg11.dtd" >
<svg>
<metadata>
Created by FontForge 20120731 at Fri Jul 19 15:02:13 2019
 By www
Copyright 1990-1993 Bitstream Inc.  All rights reserved.
</metadata>
<defs>
<font id="CopperplateGothicBT-Heavy" horiz-adv-x="1024" >
  <font-face 
    font-family="CopprplGoth Hv BT"
    font-weight="400"
    font-stretch="normal"
    units-per-em="2048"
    panose-1="2 14 9 7 3 5 3 2 4 4"
    ascent="1638"
    descent="-410"
    x-height="883"
    cap-height="1075"
    bbox="-352 -483 2497 1675"
    underline-thickness="203"
    underline-position="-98"
    unicode-range="U+0020-F002"
  />
<missing-glyph horiz-adv-x="1229" 
d="M102 -362v1806h1024v-1806h-1024zM217 -248h795v1577h-795v-1577z" />
    <glyph glyph-name=".notdef" horiz-adv-x="1229" 
d="M102 -362v1806h1024v-1806h-1024zM217 -248h795v1577h-795v-1577z" />
    <glyph glyph-name=".null" horiz-adv-x="0" 
 />
    <glyph glyph-name="nonmarkingreturn" horiz-adv-x="651" 
 />
    <glyph glyph-name="space" unicode=" " horiz-adv-x="651" 
 />
    <glyph glyph-name="exclam" unicode="!" horiz-adv-x="721" 
d="M434 498q0 -3 -1 -7.5t-1 -7.5q0 -24 14.5 -40.5t36.5 -16.5h2v-25h-254v25h2q23 0 37.5 16.5t14.5 40.5q0 3 -1 7.5t-1 7.5l-78 491q0 2 -1 4q-9 53 -52 58v24h413v-24q-39 -6 -48 -55q0 -4 -1 -7zM211 127q0 62 43 105.5t104 43.5t104.5 -44t43.5 -105t-43 -103
t-105 -42q-63 0 -105 41t-42 104z" />
    <glyph glyph-name="quotedbl" unicode="&#x22;" horiz-adv-x="643" 
d="M395 1436h164v-557h-164v557zM86 1436h164v-557h-164v557z" />
    <glyph glyph-name="numbersign" unicode="#" horiz-adv-x="1575" 
d="M709 852l-91 -254h256l91 254h-256zM735 1460h191l-154 -436h250l156 436h190l-154 -436h291l-59 -172h-293l-90 -252h309l-61 -172h-307l-156 -434h-191l156 434h-252l-158 -434h-190l156 434h-299l61 172h297l90 252h-315l61 172h316z" />
    <glyph glyph-name="dollar" unicode="$" horiz-adv-x="1305" 
d="M702 199h11q92 0 139 28t47 84q0 54 -44 80.5t-153 36.5v-229zM569 682v211q-87 -5 -132.5 -32.5t-45.5 -76.5q0 -45 38.5 -67.5t139.5 -34.5zM569 -219v215q-131 1 -273 46.5t-146 45.5q-9 0 -17.5 -6.5t-23.5 -28.5l-27 10l133 326l26 -13q-2 -3 -3.5 -7.5t-1.5 -10.5
q0 -44 95.5 -89.5t237.5 -63.5v244q-213 18 -317.5 96.5t-104.5 220.5q0 138 111.5 225.5t310.5 104.5v170h133v-170q153 -6 317 -63q44 -15 54 -15q9 0 19 7.5t24 27.5l27 -11l-129 -317l-26 10q2 8 2.5 11.5t0.5 7.5q0 48 -81 87.5t-208 49.5v-229q246 -33 351.5 -108
t105.5 -214q0 -159 -118 -250t-338 -100l-1 -209h-133z" />
    <glyph glyph-name="percent" unicode="%" horiz-adv-x="1765" 
d="M1202 311q0 -80 41 -128t109 -48q66 0 106.5 48.5t40.5 127.5q0 80 -40 127t-107 47q-68 0 -109 -47t-41 -127zM1010 307q0 149 93.5 239.5t248.5 90.5q154 0 247 -90.5t93 -239.5q0 -148 -93 -236.5t-247 -88.5q-156 0 -249 88.5t-93 236.5zM266 768q0 -80 41 -128
t109 -48q66 0 106.5 48t40.5 128t-40 127t-107 47q-68 0 -109 -47.5t-41 -126.5zM74 766q0 149 92.5 238.5t247.5 89.5q154 0 248 -90t94 -238t-94 -238t-248 -90q-155 0 -247.5 89.5t-92.5 238.5zM360 -18l883 1112h162l-885 -1112h-160z" />
    <glyph glyph-name="ampersand" unicode="&#x26;" horiz-adv-x="1427" 
d="M465 809q0 -47 40.5 -78t104.5 -31q65 0 105.5 31t40.5 78t-40.5 78t-105.5 31t-105 -30.5t-40 -78.5zM776 340q-42 81 -101 120.5t-136 39.5q-71 0 -118.5 -41t-47.5 -101q0 -66 49 -105.5t131 -39.5q75 0 128.5 30.5t94.5 96.5zM940 123q-88 -71 -183 -104t-212 -33
q-208 0 -333.5 90.5t-125.5 238.5q0 104 64 187.5t190 144.5q-50 47 -74 92.5t-24 91.5q0 109 106 180.5t270 71.5q161 0 265 -67.5t104 -167.5q0 -67 -40.5 -125t-129.5 -119q26 -35 56 -67t67 -62q106 133 185 205.5t153 107.5h20v-331h-20l-25 28q-48 -17 -86 -54
t-71 -99q29 -43 67.5 -62t97.5 -20l25 29h12v-293h-10q-113 0 -196 32.5t-152 104.5z" />
    <glyph glyph-name="quotesingle" unicode="'" horiz-adv-x="334" 
d="M86 1436h164v-557h-164v557z" />
    <glyph glyph-name="parenleft" unicode="(" horiz-adv-x="819" 
d="M754 -215q-58 0 -150 33t-160 82q-131 94 -198.5 231t-67.5 309q0 158 56.5 285.5t168.5 222.5q73 62 176.5 103t174.5 41q20 -1 30.5 -7t10.5 -16q0 -15 -43.5 -34t-81.5 -46q-114 -82 -161.5 -205t-47.5 -346q0 -207 41.5 -329t134.5 -197q52 -42 105 -66.5t53 -38.5
q-1 -11 -11.5 -16.5t-29.5 -5.5z" />
    <glyph glyph-name="parenright" unicode=")" horiz-adv-x="819" 
d="M682 440q0 -172 -67.5 -309t-198.5 -231q-67 -49 -159.5 -82t-150.5 -33q-19 0 -29.5 5.5t-10.5 16.5q0 15 43 34t81 46q114 82 161.5 205.5t47.5 345.5q0 207 -41.5 329.5t-134.5 197.5q-51 41 -104 66t-53 38q0 11 10 16.5t30 6.5q58 0 150 -32t160 -81
q130 -93 198 -230.5t68 -308.5z" />
    <glyph glyph-name="asterisk" unicode="*" 
d="M266 760h-18q-20 0 -32 -7t-23 -23l-23 7l74 236l22 -7q2 -38 39 -61q5 -3 6 -4l174 -110l-47 198q-8 34 -18 44t-33 18v24h248v-24q-38 -12 -47 -51q-1 -6 -2 -11l-51 -198l177 116q2 1 5 3q37 24 41 63l22 6l74 -236l-23 -8q-15 19 -24.5 26t-20.5 7q-6 0 -17 -1
t-13 -1l-203 -23l158 -137q17 -15 27.5 -19.5t23.5 -4.5q4 0 8.5 0.5t18.5 2.5l14 -20l-201 -145l-14 20q10 18 13 26.5t3 14.5t-7 24q-3 8 -5 13l-82 197l-76 -197q-8 -21 -10 -27t-2 -10q0 -6 3 -14.5t13 -26.5l-14 -20l-201 145l15 21q8 -2 15.5 -3t16.5 -1q10 0 20 5
t25 19l156 137z" />
    <glyph glyph-name="plus" unicode="+" horiz-adv-x="1706" 
d="M768 1221h170v-527h514v-166h-514v-528h-170v528h-514v166h514v527z" />
    <glyph glyph-name="comma" unicode="," horiz-adv-x="651" 
d="M152 -190q97 39 145.5 78t48.5 77q0 31 -49 37q-16 2 -24 4q-49 11 -79 49.5t-30 89.5q0 65 47.5 108.5t118.5 43.5q78 0 126 -53t48 -140q0 -117 -92.5 -211.5t-259.5 -146.5v64z" />
    <glyph glyph-name="hyphen" unicode="-" horiz-adv-x="668" 
d="M70 410v252h528v-252h-528z" />
    <glyph glyph-name="period" unicode="." horiz-adv-x="651" 
d="M166 139q0 66 47 113t113 47q65 0 111 -47t46 -113t-45.5 -111.5t-111.5 -45.5q-68 0 -114 45t-46 112z" />
    <glyph glyph-name="slash" unicode="/" horiz-adv-x="569" 
d="M-129 -190l600 1284h145l-598 -1284h-147z" />
    <glyph glyph-name="zero" unicode="0" horiz-adv-x="1305" 
d="M393 541q0 -143 71 -228.5t187 -85.5q118 0 189 85.5t71 228.5t-71.5 229t-188.5 86q-116 0 -187 -86.5t-71 -228.5zM86 537q0 252 154 404.5t411 152.5q258 0 413 -152.5t155 -404.5t-155 -403.5t-413 -151.5q-257 0 -411 151t-154 404z" />
    <glyph glyph-name="one" unicode="1" horiz-adv-x="1305" 
d="M492 0v29q33 8 43 19.5t10 39.5v633l-101 -33q-30 -10 -41 -23.5t-18 -41.5h-29v329h29q7 -29 14.5 -38t22.5 -9q10 0 15.5 1t10.5 3l97 37v41q0 29 -10 40.5t-43 19.5v28h407v-28q-32 -8 -41.5 -19t-9.5 -41v-899q0 -30 9.5 -41t41.5 -18v-29h-407z" />
    <glyph glyph-name="two" unicode="2" horiz-adv-x="1305" 
d="M1063 246q28 0 39.5 9.5t19.5 41.5h29v-348h-29q-7 32 -18 41.5t-41 9.5h-881q-29 0 -40.5 -9.5t-18.5 -41.5h-29v12q0 160 87.5 286.5t275.5 237.5q64 39 173 93q181 90 181 163q0 55 -41 82t-125 27q-104 0 -208.5 -64.5t-104.5 -109.5q0 -7 3 -17.5t9 -23.5l-25 -17
l-229 310l23 18q18 -12 27.5 -16t17.5 -4q11 0 69 38t111 60q92 39 165.5 54.5t155.5 15.5q201 0 322 -95t121 -249q0 -118 -62 -194.5t-239 -162.5q-31 -15 -89 -40q-141 -61 -180 -107h531z" />
    <glyph glyph-name="three" unicode="3" horiz-adv-x="1305" 
d="M221 432l27 -12q-2 -6 -3 -11.5t-1 -11.5q0 -69 119.5 -125.5t277.5 -56.5q109 0 168 32t59 91t-49 86t-157 27q-77 0 -100 -11t-23 -41h-29v318h28q2 -30 23 -40.5t90 -10.5q89 0 131.5 24t42.5 74q0 48 -49 73t-143 25q-119 0 -229.5 -49t-110.5 -86q0 -7 10 -27
q3 -5 4 -8l-24 -16l-195 278l25 17l2 -2q29 -23 43 -23q12 0 64 28q228 120 444 120q201 0 321.5 -88t120.5 -230q0 -67 -30 -115t-95 -83q91 -45 136.5 -109.5t45.5 -146.5q0 -162 -130.5 -252t-364.5 -90q-227 0 -460 89q-59 23 -75 23q-10 0 -18.5 -7.5t-18.5 -25.5
l-26 13z" />
    <glyph glyph-name="four" unicode="4" horiz-adv-x="1305" 
d="M731 395v488l-391 -488h391zM678 0v29q32 7 41.5 18t9.5 41v105h-549q-28 0 -39.5 -10.5t-19.5 -43.5h-29v258l457 568q1 1 5 6q21 27 21 49q0 10 -7 15.5t-31 11.5v28h518v-28q-33 -8 -43.5 -19.5t-10.5 -40.5v-590h97q29 0 41.5 11t19.5 43h29v-312h-29q-7 32 -19.5 43
t-41.5 11h-97v-105q0 -28 10.5 -39.5t43.5 -19.5v-29h-377z" />
    <glyph glyph-name="five" unicode="5" horiz-adv-x="1305" 
d="M295 401l22 -16q-4 -12 -6 -22t-2 -17q0 -37 111.5 -82t234.5 -45q103 0 161 39t58 107q0 72 -58.5 109.5t-170.5 37.5q-79 0 -115 -12t-36 -37q0 -6 3.5 -11.5t14.5 -15.5l-14 -24l-371 223l14 24q23 2 37.5 14.5t14.5 31.5v282q0 29 -10.5 40.5t-43.5 19.5v28h883
q28 0 39.5 10t19.5 43h29v-325h-29q-7 32 -18 41.5t-41 9.5h-571v-174q71 21 138.5 31t133.5 10q210 0 328 -96t118 -267q0 -184 -137 -283.5t-391 -99.5q-215 0 -445 92q-53 21 -65 21t-32 -23l-2 -3l-25 16z" />
    <glyph glyph-name="six" unicode="6" horiz-adv-x="1305" 
d="M469 358q0 -67 65 -107t175 -40q101 0 160 40t59 107q0 68 -61 109t-162 41q-113 0 -174.5 -39t-61.5 -111zM403 594q83 69 170 99t197 30q186 0 310 -103t124 -258q0 -179 -137 -279.5t-383 -100.5q-255 0 -406 144.5t-151 387.5q0 263 171 424.5t452 161.5
q111 0 230.5 -31t121.5 -31q10 0 21 7.5t28 25.5l27 -12l-148 -301l-26 15q3 6 4.5 11.5t1.5 10.5q0 41 -72 70.5t-176 29.5q-157 0 -254 -81.5t-105 -219.5z" />
    <glyph glyph-name="seven" unicode="7" horiz-adv-x="1305" 
d="M324 0v29q36 7 59.5 24.5t44.5 52.5l420 734h-629q-28 0 -39.5 -10t-19.5 -42h-31v340h31q8 -33 19.5 -43t39.5 -10h858q29 0 40.5 10t19.5 43h28v-262l-411 -770q-2 -3 -6 -10q-7 -13 -7 -16q0 -19 14 -29.5t39 -11.5l1 -29h-471z" />
    <glyph glyph-name="eight" unicode="8" horiz-adv-x="1305" 
d="M410 326q0 -65 62 -99t179 -34q118 0 181 34.5t63 98.5q0 61 -65 97t-179 36q-113 0 -177 -36t-64 -97zM651 666q91 0 140 29.5t49 84.5q0 52 -51.5 83.5t-137.5 31.5q-85 0 -135.5 -31.5t-50.5 -83.5q0 -55 48 -84.5t138 -29.5zM332 569q-79 39 -116.5 93t-37.5 131
q0 141 125 221t348 80q224 0 349.5 -80t125.5 -221q0 -77 -37 -131t-116 -93q106 -35 159.5 -99t53.5 -155q0 -157 -141.5 -247.5t-393.5 -90.5q-251 0 -391.5 90t-140.5 248q0 91 53.5 155t159.5 99z" />
    <glyph glyph-name="nine" unicode="9" horiz-adv-x="1305" 
d="M848 719q0 68 -64.5 108.5t-173.5 40.5q-101 0 -160 -41t-59 -110t60.5 -110.5t162.5 -41.5q112 0 173 40.5t61 113.5zM100 33l164 293l24 -14q-3 -13 -4 -20.5t-1 -15.5q0 -14 9 -23t39 -21q4 -2 13 -6q103 -46 211 -46q163 0 261 85.5t99 227.5q-85 -68 -180.5 -103.5
t-195.5 -35.5q-183 0 -304.5 102t-121.5 255q0 177 138 280t378 103q253 0 408 -147.5t155 -387.5q0 -264 -172.5 -425t-456.5 -161q-119 0 -253 38t-136 38q-11 0 -21 -6.5t-26 -24.5z" />
    <glyph glyph-name="colon" unicode=":" horiz-adv-x="698" 
d="M190 139q0 67 46 113.5t112 46.5t113 -47.5t47 -112.5t-46.5 -111t-113.5 -46t-112.5 45t-45.5 112zM190 725q0 66 46 113t112 47t113 -47.5t47 -112.5q0 -66 -46.5 -112t-113.5 -46t-112.5 45t-45.5 113z" />
    <glyph glyph-name="semicolon" unicode=";" horiz-adv-x="698" 
d="M190 725q0 66 46 113t112 47t113 -47.5t47 -112.5q0 -66 -46.5 -112t-113.5 -46t-112.5 45t-45.5 113zM174 -190q99 40 148 78.5t49 76.5q0 30 -51 37q-16 2 -25 4q-48 11 -77.5 49.5t-29.5 89.5q0 65 47 108.5t117 43.5q79 0 127.5 -53.5t48.5 -139.5q0 -116 -93 -211
t-261 -147v64z" />
    <glyph glyph-name="less" unicode="&#x3c;" horiz-adv-x="1706" 
d="M1442 1176v-185l-934 -381l934 -381v-182l-1178 483v160z" />
    <glyph glyph-name="equal" unicode="=" horiz-adv-x="1706" 
d="M254 487h1198v-165h-1198v165zM254 901h1198v-168h-1198v168z" />
    <glyph glyph-name="greater" unicode="&#x3e;" horiz-adv-x="1706" 
d="M264 1176l1178 -486v-160l-1178 -483v182l934 381l-934 381v185z" />
    <glyph glyph-name="question" unicode="?" horiz-adv-x="1014" 
d="M326 393v23q15 0 29.5 10.5t33.5 36.5q72 99 115 182t43 123t-23.5 62t-64.5 22q-47 0 -85 -28.5t-38 -61.5q0 -5 1.5 -12.5t4.5 -16.5l-25 -12l-219 225l13 17q10 -4 20.5 -6.5t20.5 -2.5q12 0 127 69t245 69q129 0 219.5 -78.5t90.5 -186.5q0 -95 -100 -223
q-10 -14 -15 -20q-35 -43 -54.5 -78.5t-19.5 -54.5q0 -14 10 -22t31 -12v-24h-360zM358 127q0 62 43.5 105.5t104.5 43.5q60 0 103.5 -44t43.5 -105t-42.5 -103t-104.5 -42q-63 0 -105.5 41t-42.5 104z" />
    <glyph glyph-name="at" unicode="@" horiz-adv-x="2048" 
d="M1174 283q-55 -87 -128 -127.5t-176 -40.5q-152 0 -232.5 86.5t-80.5 249.5q0 233 138 395t333 162q89 0 149 -34.5t99 -107.5l55 107h154l-148 -586q-1 -5 -2 -12q-6 -28 -6 -37q0 -38 26.5 -61t69.5 -23q51 0 107.5 30.5t105.5 84.5q72 76 110 177.5t38 215.5
q0 253 -187 411t-489 158q-138 0 -256 -31t-215 -94q-181 -113 -279 -291t-98 -395q0 -312 209.5 -499t558.5 -187q166 0 323.5 49t291.5 142l67 -99q-149 -113 -318.5 -170t-355.5 -57q-192 0 -351 48t-281 142q-155 118 -231.5 275.5t-76.5 357.5q0 165 52 313.5
t153 272.5q147 179 353.5 272t459.5 93q166 0 315 -45.5t255 -127.5q132 -102 198 -235.5t66 -300.5q0 -162 -65 -302t-185 -237q-69 -55 -150 -83.5t-168 -28.5q-106 0 -157 40.5t-51 125.5v4zM1233 707q-14 84 -61.5 130t-122.5 46q-127 0 -217.5 -128.5t-90.5 -310.5
q0 -98 45.5 -151t128.5 -53q90 0 163.5 66.5t99.5 172.5z" />
    <glyph glyph-name="A" unicode="A" horiz-adv-x="1348" 
d="M471 408h360l-186 473zM922 0v29q20 5 29.5 13.5t9.5 23.5q0 7 -3 17.5t-10 29.5l-43 116h-499l-44 -116q-4 -10 -6 -18.5t-2 -16.5q0 -19 10.5 -31t32.5 -18v-29h-366v29q54 28 90 131q4 11 6 16l283 774q8 23 13 40t5 24q0 16 -7 23.5t-24 9.5v28h535v-28
q-17 -2 -24 -9.5t-7 -23.5q0 -6 5.5 -24t13.5 -40l342 -862q0 -1 1 -3q17 -43 52 -56v-29h-393z" />
    <glyph glyph-name="B" unicode="B" horiz-adv-x="1473" 
d="M827 856h-311v-190h336q86 0 129 24t43 72q0 52 -43 73t-154 21zM821 463h-305v-242h297q143 0 194.5 26.5t51.5 92.5q0 65 -56 94t-182 29zM162 0v29q32 7 41.5 18t9.5 41v899q0 30 -9.5 41t-41.5 19v28h768q185 0 287 -72.5t102 -203.5q0 -80 -43.5 -137t-136.5 -99
q103 -38 156 -101.5t53 -150.5q0 -154 -112.5 -232.5t-332.5 -78.5h-741z" />
    <glyph glyph-name="C" unicode="C" horiz-adv-x="1368" 
d="M1115 691q2 4 3.5 9t1.5 9q0 44 -102 83t-225 39q-173 0 -277 -79t-104 -209t99 -205.5t271 -75.5q99 0 168.5 17.5t143.5 58.5q20 11 26 19t6 20q0 6 -1.5 14t-3.5 17l24 14l205 -334l-27 -12q-14 13 -23.5 19.5t-15.5 6.5q-9 0 -48 -18q-213 -102 -450 -102
q-318 0 -505 152t-187 405q0 246 183 400.5t483 154.5q158 0 315.5 -46.5t159.5 -46.5q14 1 25 8t26 25l25 -10l-170 -344z" />
    <glyph glyph-name="D" unicode="D" horiz-adv-x="1477" 
d="M719 1075q193 0 298.5 -28t184.5 -93q84 -69 129 -177t45 -238q0 -132 -45 -240.5t-129 -177.5q-79 -65 -184.5 -93t-298.5 -28h-555v29q32 7 41.5 18t9.5 41v899q0 30 -9.5 41t-41.5 19v28h555zM518 829v-579h199q181 0 264.5 70t83.5 221q0 150 -83 219t-265 69h-199z
" />
    <glyph glyph-name="E" unicode="E" horiz-adv-x="1407" 
d="M1133 254q28 0 39.5 9.5t19.5 41.5h29v-356h-29q-8 32 -19 41.5t-40 9.5h-971v29q32 7 41.5 18t9.5 41v899q0 30 -9.5 41t-41.5 19v28h973q28 0 39.5 10.5t17.5 42.5h29v-358h-29q-7 32 -18.5 41.5t-38.5 9.5h-619v-151h371q29 0 40.5 9.5t21.5 41.5h28v-334h-29
q-9 32 -21 41.5t-40 9.5h-371v-184h617z" />
    <glyph glyph-name="F" unicode="F" horiz-adv-x="1358" 
d="M162 0v29q32 7 41.5 18t9.5 41v899q0 30 -9.5 41t-41.5 19v28h995q29 0 40.5 10t19.5 43h28v-358h-28q-9 33 -20.5 42t-39.5 9h-641v-182h420q30 0 42 10.5t20 40.5h28v-334l-29 1q-7 30 -19 40.5t-42 10.5h-420v-320q0 -28 10 -39.5t43 -19.5v-29h-407z" />
    <glyph glyph-name="G" unicode="G" horiz-adv-x="1516" 
d="M1417 160q-202 -100 -343.5 -139t-285.5 -39q-319 0 -506.5 152t-187.5 405q0 246 183 400.5t483 154.5q158 0 315.5 -46.5t159.5 -46.5q14 1 25 8t26 25l25 -10l-170 -319l-27 10q3 4 4.5 8.5t1.5 9.5q0 46 -101 84.5t-231 38.5q-172 0 -279.5 -90t-107.5 -234
q0 -145 102.5 -229t280.5 -84q75 0 142.5 14.5t134.5 45.5v106h-223q-30 0 -41 -9.5t-19 -41.5h-28v295h28q8 -32 19 -41.5t41 -9.5h579v-31q-32 -8 -42.5 -20t-10.5 -42v-237q0 -29 10 -40.5t43 -19.5v-28z" />
    <glyph glyph-name="H" unicode="H" horiz-adv-x="1565" 
d="M162 0v29q32 7 41.5 18t9.5 41v899q0 30 -9.5 41t-41.5 19v28h407v-28q-33 -8 -43 -19.5t-10 -40.5v-299h533v299q0 29 -10.5 40.5t-43.5 19.5v28h408v-28q-32 -8 -41.5 -19t-9.5 -41v-899q0 -30 9.5 -41t41.5 -18v-29h-408v29q33 8 43.5 19.5t10.5 39.5v352h-533v-352
q0 -28 10 -39.5t43 -19.5v-29h-407z" />
    <glyph glyph-name="I" unicode="I" horiz-adv-x="723" 
d="M158 0v29q32 7 41.5 18t9.5 41v899q0 30 -9.5 41t-41.5 19v28h407v-28q-33 -8 -43 -19.5t-10 -40.5v-899q0 -28 10 -39.5t43 -19.5v-29h-407z" />
    <glyph glyph-name="J" unicode="J" horiz-adv-x="1122" 
d="M909 377q0 -201 -105.5 -297t-324.5 -96q-139 0 -326 70q-47 18 -57 18q-6 0 -14 -5t-25 -22l-26 10l127 340l26 -10q-1 -3 -1.5 -5t-0.5 -7q0 -48 85.5 -92.5t191.5 -44.5q84 0 115.5 37t31.5 159v555q0 29 -10 40.5t-43 19.5v28h408v-28q-32 -8 -42 -19t-10 -41v-610z
" />
    <glyph glyph-name="K" unicode="K" horiz-adv-x="1460" 
d="M870 967q27 23 38.5 35.5t11.5 19.5q-1 14 -8.5 19t-26.5 6v28h522v-28q-31 -6 -56 -18.5t-57 -41.5l-346 -305l340 -532q44 -69 69 -91t56 -30v-29h-457l1 29q17 5 25.5 13.5t8.5 20.5q0 14 -19 41q-7 10 -11 17l-234 366l-211 -188v-211q0 -28 10 -39.5t43 -19.5v-29
h-407v29q32 7 41.5 18t9.5 41v899q0 30 -9.5 41t-41.5 19v28h407v-28q-33 -8 -43 -19.5t-10 -40.5v-334z" />
    <glyph glyph-name="L" unicode="L" horiz-adv-x="1376" 
d="M1178 254q28 0 39.5 9.5t19.5 41.5h29v-356h-29q-8 32 -19 41.5t-40 9.5h-1016v29q32 7 41.5 18t9.5 41v899q0 30 -9.5 41t-41.5 19v28h407v-28q-33 -8 -43 -19.5t-10 -40.5v-733h662z" />
    <glyph glyph-name="M" unicode="M" horiz-adv-x="1683" 
d="M461 88q0 -28 10 -39.5t43 -19.5v-29h-352v29q33 8 43 19.5t10 39.5v899q0 29 -10 40.5t-43 19.5v28h524v-28q-21 -7 -32 -16t-11 -21q0 -10 12 -40q2 -4 2 -5l168 -392l191 392q5 12 8.5 24.5t3.5 20.5q0 12 -10.5 21t-32.5 16v28h537v-28q-33 -8 -43.5 -19.5
t-10.5 -40.5v-899q0 -28 10.5 -39.5t43.5 -19.5v-29h-389v29q33 8 43 19.5t10 39.5v723l-369 -786l-356 786v-723z" />
    <glyph glyph-name="N" unicode="N" horiz-adv-x="1552" 
d="M473 88q0 -30 9.5 -41t41.5 -18v-29h-362v29q32 7 41.5 18t9.5 41v899q0 30 -9.5 41t-41.5 19v28h471v-28q-20 -6 -30.5 -15t-10.5 -20q0 -12 23 -37q6 -6 10 -11l452 -495v518q0 29 -10 40.5t-43 19.5v28h369v-28q-33 -8 -43.5 -19.5t-10.5 -40.5v-899q0 -28 10.5 -39.5
t43.5 -19.5v-29h-389v29q20 5 30 14t10 20q0 13 -28 45l-4 4l-539 590v-614z" />
    <glyph glyph-name="O" unicode="O" horiz-adv-x="1456" 
d="M727 -18q-275 0 -454 159t-179 398q0 240 178 397.5t455 157.5t455 -157.5t178 -397.5q0 -239 -179 -398t-454 -159zM408 537q0 -139 87 -222.5t234 -83.5q144 0 231 84t87 222q0 137 -88 222t-232 85q-143 0 -231 -85t-88 -222z" />
    <glyph glyph-name="P" unicode="P" horiz-adv-x="1356" 
d="M162 0v29q32 7 41.5 18t9.5 41v899q0 30 -9.5 41t-41.5 19v28h682q200 0 311 -89.5t111 -250.5q0 -87 -37 -159.5t-103 -114.5q-54 -35 -131.5 -49.5t-226.5 -14.5h-252v-309q0 -28 10 -39.5t43 -19.5v-29h-407zM516 858v-244h232q125 0 181 29.5t56 93.5q0 67 -52.5 94
t-193.5 27h-223z" />
    <glyph glyph-name="Q" unicode="Q" horiz-adv-x="1456" 
d="M952 16q-62 -16 -116 -24t-105 -8q-279 0 -458 157.5t-179 397.5t178 397.5t455 157.5q278 0 456.5 -159.5t178.5 -402.5q0 -131 -64 -246.5t-180 -191.5l80 -108q10 -13 20 -20t19 -7q6 0 16 2.5t23 7.5l18 -22l-250 -158l-16 25q12 15 17.5 25t5.5 18q0 5 -4 13.5
t-13 20.5zM805 238q-45 78 -90 111t-114 40l5 25q36 15 69.5 22.5t67.5 7.5q64 0 113.5 -25.5t110.5 -92.5q40 43 60 95.5t20 115.5q0 137 -88 222t-232 85q-143 0 -231 -85t-88 -222q0 -139 87 -222.5t234 -83.5q7 0 25 1.5t51 5.5z" />
    <glyph glyph-name="R" unicode="R" horiz-adv-x="1481" 
d="M162 0v29q32 7 41.5 18t9.5 41v899q0 30 -9.5 41t-41.5 19v28h747q201 0 312.5 -89.5t111.5 -250.5q0 -125 -69.5 -209.5t-206.5 -124.5l160 -251q42 -69 67.5 -91.5t56.5 -29.5v-29h-432l1 29q17 5 25.5 13.5t8.5 20.5q0 14 -19 41q-8 11 -12 17l-176 276h-221v-309
q0 -28 10 -39.5t43 -19.5v-29h-407zM516 858v-244h264q126 0 182 29.5t56 93.5q0 67 -52.5 94t-193.5 27h-256z" />
    <glyph glyph-name="S" unicode="S" horiz-adv-x="1341" 
d="M1051 743q1 7 3.5 15.5t2.5 11.5q0 44 -120 81.5t-267 37.5q-121 0 -194 -32t-73 -83q1 -75 280 -89q45 -2 69 -3q260 -14 375.5 -91t115.5 -233q0 -163 -153 -266.5t-402 -103.5q-288 0 -525 86q-27 10 -32 10q-8 0 -16 -6t-25 -27l-27 12l150 328l26 -13
q-2 -3 -3.5 -7.5t-2.5 -10.5q0 -61 139 -114t316 -53q123 0 194.5 36t71.5 97q0 112 -298 123q-22 1 -34 2q-250 9 -373.5 84.5t-123.5 220.5q0 150 144.5 244t381.5 94q147 0 310 -45t172 -45q21 0 30.5 5.5t18.5 20.5l26 -12l-131 -287z" />
    <glyph glyph-name="T" unicode="T" horiz-adv-x="1364" 
d="M834 811v-723q0 -30 9.5 -41t41.5 -18v-29h-408v29q33 8 42 20t9 39v723h-321q-28 0 -40 -10t-20 -41h-28v368h28q8 -33 19.5 -43t40.5 -10h948q29 0 40.5 10t18.5 43h29v-368h-29q-7 31 -19 41t-40 10h-321z" />
    <glyph glyph-name="U" unicode="U" horiz-adv-x="1540" 
d="M1020 987q0 31 -10.5 43t-42.5 19v26h411v-26q-32 -8 -42.5 -20t-10.5 -42v-538q0 -232 -141 -349.5t-418 -117.5q-279 0 -416 119.5t-137 363.5v522q0 31 -10.5 43t-42.5 19v26h407v-26q-31 -6 -41 -18t-10 -44v-469q0 -146 57 -204t195 -58q136 0 194 57.5t58 200.5
v473z" />
    <glyph glyph-name="V" unicode="V" horiz-adv-x="1348" 
d="M709 387l247 577l2 5q13 31 13 43q0 11 -10 19.5t-31 15.5v28h379v-28q-37 -30 -78 -126q-6 -14 -8 -19l-344 -789l-2 -5q-13 -31 -13 -40q0 -13 11.5 -23t31.5 -16v-29h-448v29q20 6 30.5 15t10.5 22q0 7 -4 18.5t-13 28.5l-393 874q-2 4 -5 11q-17 36 -48 49v28h436
v-28q-21 -7 -31 -15.5t-10 -19.5q0 -6 4 -17.5t13 -29.5z" />
    <glyph glyph-name="W" unicode="W" horiz-adv-x="1942" 
d="M106 987q-9 28 -20.5 39.5t-32.5 20.5v28h393v-29q-23 -5 -31.5 -14t-8.5 -26q0 -7 2 -16.5t8 -27.5l182 -626l178 629q4 14 6 24.5t2 16.5q0 16 -7.5 25t-26.5 16v28h479v-28q-21 -8 -29 -16.5t-8 -22.5q0 -3 5 -24q3 -12 5 -19l162 -629l184 628q3 11 7 25t4 17
q0 16 -8 25t-27 16v28h362v-28q-28 -26 -48.5 -59t-39.5 -87l-274 -786q-6 -16 -8.5 -26.5t-2.5 -18.5q0 -14 9.5 -22.5t31.5 -14.5v-33h-421v29q19 6 26.5 15.5t7.5 25.5q0 8 -5 30q-2 8 -3 13l-190 729l-195 -729q-1 -5 -3 -13q-5 -23 -5 -30q0 -16 7.5 -25.5t27.5 -15.5
v-29h-439l1 33q22 5 29 13.5t7 29.5q0 8 -2 18t-6 21z" />
    <glyph glyph-name="X" unicode="X" horiz-adv-x="1282" 
d="M1200 88q20 -25 38.5 -38t43.5 -21v-29h-485v31q2 0 7 -1t7 -1q13 0 20 5.5t7 16.5q0 15 -24 45l-9 12l-164 205l-170 -204q-17 -20 -26 -35t-9 -23q0 -10 8 -15t23 -5h12v-31h-481v31q26 8 45.5 21.5t38.5 37.5l373 461l-342 438q-22 28 -40 40.5t-42 19.5v26h487v-26
h-8q-15 0 -23 -6t-8 -17q0 -8 8.5 -23.5t24.5 -35.5l139 -176l144 174q19 22 27.5 37.5t8.5 25.5t-8 15.5t-22 5.5h-13v26h478v-26q-41 -10 -81 -58l-1 -2l-350 -434z" />
    <glyph glyph-name="Y" unicode="Y" horiz-adv-x="1192" 
d="M817 965q14 20 22.5 36.5t8.5 24.5q0 10 -8 16.5t-21 6.5q-2 0 -6 -1t-6 -1v28h387v-28q-31 -22 -59 -61l-9 -12l-358 -511v-375q0 -30 9.5 -41t41.5 -18v-29h-407v29q31 7 41 18t10 41v334l-375 539q-3 4 -10 14q-44 62 -82 72v28h453v-28h-9q-16 -1 -24 -6.5t-8 -16.5
q0 -6 5 -16.5t23 -38.5l189 -275z" />
    <glyph glyph-name="Z" unicode="Z" horiz-adv-x="1415" 
d="M135 0v23l582 808h-453q-29 0 -40.5 -9.5t-18.5 -41.5h-29v348h29q8 -33 19.5 -43t39.5 -10h975v-16l-577 -803h493q30 0 41 9.5t18 41.5h29v-360h-29q-7 33 -18.5 43t-40.5 10h-1020z" />
    <glyph glyph-name="bracketleft" unicode="[" horiz-adv-x="807" 
d="M758 -229h-572v1304h572v-129h-309v-1044h309v-131z" />
    <glyph glyph-name="backslash" unicode="\" horiz-adv-x="569" 
d="M664 -190h-150l-596 1284h143z" />
    <glyph glyph-name="bracketright" unicode="]" horiz-adv-x="807" 
d="M53 -229v131h309v1044h-309v129h574v-1304h-574z" />
    <glyph glyph-name="asciicircum" unicode="^" horiz-adv-x="2048" 
d="M915 1460h218l495 -561h-207l-397 397l-399 -397h-207z" />
    <glyph glyph-name="underscore" unicode="_" 
d="M0 -311h1024v-172h-1024v172z" />
    <glyph glyph-name="grave" unicode="`" 
d="M707 1012h-91l-313 164q-56 30 -75 53t-19 55q0 40 25 65t65 25q30 0 61.5 -19t73.5 -63z" />
    <glyph glyph-name="a" unicode="a" horiz-adv-x="1184" 
d="M428 334h289l-150 368zM819 883v-29q-17 -2 -23.5 -8t-7.5 -21q0 -14 4.5 -30.5t12.5 -36.5l274 -670q1 -1 1 -2q17 -43 50 -57v-29h-350l1 29q19 4 28.5 14.5t9.5 28.5q0 6 -3 17.5t-7 23.5l-31 75h-405l-29 -75q-1 -4 -3 -10q-5 -17 -5 -25q0 -19 10 -31t33 -18v-29
h-328v29q26 12 45.5 39.5t50.5 107.5l218 582q8 22 12 37t4 24q0 18 -6.5 26t-22.5 10v28h467z" />
    <glyph glyph-name="b" unicode="b" horiz-adv-x="1274" 
d="M686 371h-227v-181h221q119 0 163 20.5t44 70.5q0 47 -46.5 68.5t-154.5 21.5zM692 692h-233v-145h254q73 0 108 17.5t35 53.5q0 41 -36 57.5t-128 16.5zM793 883q154 0 239.5 -60t85.5 -168q0 -65 -37 -112.5t-114 -79.5q87 -32 131.5 -84t44.5 -123q0 -127 -94 -191.5
t-279 -64.5h-629v29q32 7 42 18t10 41v705q0 30 -10 41.5t-42 20.5v28h652z" />
    <glyph glyph-name="c" unicode="c" horiz-adv-x="1186" 
d="M963 557l-25 8q2 4 3 8t1 7q0 38 -81 69t-185 31q-144 0 -231 -64.5t-87 -171.5q0 -106 83.5 -167.5t230.5 -61.5q69 0 126.5 14.5t123.5 49.5q14 8 20 15t6 15q0 7 -1.5 13t-4.5 14l25 10l174 -276l-21 -13q-16 14 -23 18.5t-14 4.5q-5 0 -34 -14q-179 -86 -379 -86
q-269 0 -426.5 126t-157.5 336q0 204 154.5 332.5t406.5 128.5q133 0 265 -39l132 -39q11 0 20 5.5t23 21.5l23 -8z" />
    <glyph glyph-name="d" unicode="d" horiz-adv-x="1255" 
d="M602 662h-145v-443h145q151 0 222 54.5t71 168.5t-70 167t-223 53zM141 0v29q32 7 42 18t10 41v705q0 30 -10 41.5t-42 20.5v28h475q282 0 416.5 -108t134.5 -333t-134.5 -333.5t-416.5 -108.5h-475z" />
    <glyph glyph-name="e" unicode="e" horiz-adv-x="1214" 
d="M457 664v-125h284q30 0 41 9t21 42h28v-295h-28q-10 33 -21.5 43t-40.5 10h-284v-129h493q30 0 41 10t19 41h28v-321h-28q-8 32 -19 41.5t-41 9.5h-811v29q33 8 43.5 19.5t10.5 39.5v705q0 29 -11 41t-43 20v29h811q30 0 41 9.5t19 41.5h28v-322h-28q-8 32 -19.5 42
t-40.5 10h-493z" />
    <glyph glyph-name="f" unicode="f" horiz-adv-x="1161" 
d="M457 664v-125h284q30 0 41 9t21 42h28v-295h-28q-10 33 -21.5 43t-40.5 10h-282v-260q0 -28 10 -39.5t43 -19.5v-29h-373v29q33 8 43.5 19.5t10.5 39.5v705q0 29 -11 41t-43 20v29h811q30 0 41 9.5t19 41.5h28v-322h-28q-8 32 -19.5 42t-40.5 10h-493z" />
    <glyph glyph-name="g" unicode="g" horiz-adv-x="1307" 
d="M1200 127l-6 -3q-320 -144 -526 -144q-269 0 -426.5 126t-157.5 336q0 205 153 333t404 128q133 0 266 -39t135 -39q10 0 18 5t23 22l25 -8l-145 -266l-25 8q2 4 3 7.5t1 6.5q0 38 -82 69t-184 31q-151 0 -241.5 -72.5t-90.5 -191.5t85.5 -187.5t234.5 -68.5q63 0 116 11
t103 34v90h-164q-30 0 -41 -9.5t-19 -41.5h-28v268h28q8 -31 19 -41t41 -10h481v-32q-32 -8 -41.5 -19t-9.5 -41v-172q0 -30 10 -42t41 -20v-28z" />
    <glyph glyph-name="h" unicode="h" horiz-adv-x="1346" 
d="M459 88q0 -28 10 -39.5t43 -19.5v-29h-371v29q32 7 42 18t10 41v705q0 30 -10 41.5t-42 20.5v28h371v-29q-32 -8 -42.5 -20t-10.5 -41v-222h424v222q0 30 -10 41.5t-41 19.5l-1 29h371v-29q-32 -8 -42.5 -20t-10.5 -41v-705q0 -28 10 -39.5t43 -19.5v-29h-371v29
q32 7 42 18t10 41v266h-424v-266z" />
    <glyph glyph-name="i" unicode="i" horiz-adv-x="653" 
d="M459 88q0 -28 10 -39.5t43 -19.5v-29h-371v29q32 7 42 18t10 41v705q0 30 -10 41.5t-42 20.5v28h371v-29q-32 -8 -42.5 -20t-10.5 -41v-705z" />
    <glyph glyph-name="j" unicode="j" horiz-adv-x="1030" 
d="M831 297q0 -165 -87.5 -243.5t-272.5 -78.5q-119 0 -273 57q-40 15 -48 15q-6 0 -13.5 -5t-19.5 -17l-23 10l111 282l22 -8q0 -2 -1 -5t-1 -5q0 -38 63 -72t142 -34q81 0 109 30.5t28 130.5v439q0 29 -10.5 41t-42.5 20v29h371v-29q-32 -8 -43 -20t-11 -41v-496z" />
    <glyph glyph-name="k" unicode="k" horiz-adv-x="1280" 
d="M727 774q23 19 35 33t12 22q0 14 -7 19.5t-26 5.5v29h461v-29q-54 -9 -104 -52q-6 -5 -8 -7l-271 -232l268 -413q1 -1 3 -4q66 -103 122 -117v-29h-413v29q17 5 27 14t10 20q0 7 -7.5 23.5t-19.5 34.5l-178 276l-170 -147v-162q0 -30 9.5 -41t41.5 -18v-29h-369v29
q32 7 42 18t10 41v705q0 30 -10 41.5t-42 20.5v28h369v-28q-30 -8 -40.5 -20t-10.5 -42v-246z" />
    <glyph glyph-name="l" unicode="l" horiz-adv-x="1192" 
d="M512 883v-29q-32 -8 -42.5 -20t-10.5 -41v-574h491q30 0 41 10t19 41h28v-321h-28q-8 32 -19 41.5t-41 9.5h-811v29q33 8 43.5 19.5t10.5 39.5v705q0 29 -11 41t-43 20v29h373z" />
    <glyph glyph-name="m" unicode="m" horiz-adv-x="1444" 
d="M141 0v29q33 8 43.5 19.5t10.5 39.5v705q0 29 -11 41t-43 20v29h465v-29q-21 -6 -32 -16t-11 -23q0 -9 3 -19t12 -26l133 -295l143 295q5 12 8.5 25t3.5 20q0 13 -10.5 23t-30.5 16v29h473v-29q-31 -9 -41 -21t-10 -40v-705q0 -30 10 -41t41 -18v-29h-350v29
q33 8 43 19.5t10 39.5v557l-301 -620l-297 637v-574q0 -30 10 -41t42 -18v-29h-314z" />
    <glyph glyph-name="n" unicode="n" horiz-adv-x="1335" 
d="M596 883v-31q-20 -4 -30.5 -13.5t-10.5 -23.5q0 -11 5 -26t9 -19l361 -381v404q0 28 -10 39.5t-43 19.5v31h313v-31q-32 -8 -41.5 -19t-9.5 -40v-705q0 -30 9.5 -41t41.5 -18v-29h-373v29q21 6 32 16t11 23q0 10 -5 25.5t-9 19.5l-445 469v-494q0 -28 10.5 -39.5
t43.5 -19.5v-29h-314v29q32 7 42 18t10 41v705q0 30 -10.5 41.5t-41.5 17.5v31h455z" />
    <glyph glyph-name="o" unicode="o" horiz-adv-x="1214" 
d="M604 903q230 0 377 -130.5t147 -330.5q0 -198 -147.5 -329t-376.5 -131q-225 0 -372.5 131.5t-147.5 328.5q0 198 146.5 329.5t373.5 131.5zM358 444q0 -105 69 -172t179 -67t179 67t69 172t-69 172.5t-179 67.5q-109 0 -178.5 -67t-69.5 -173z" />
    <glyph glyph-name="p" unicode="p" horiz-adv-x="1196" 
d="M459 326v-238q0 -28 10 -39.5t43 -19.5v-29h-371v29q32 7 42 18t10 41v705q0 30 -10 41.5t-42 20.5v28h594q169 0 262 -74t93 -207q0 -145 -97 -210.5t-321 -65.5h-213zM459 690v-174h188q106 0 152.5 21t46.5 67q0 48 -43 67t-164 19h-180z" />
    <glyph glyph-name="q" unicode="q" horiz-adv-x="1214" 
d="M797 8q-55 -13 -100.5 -19.5t-86.5 -6.5q-230 0 -377 130.5t-147 329.5t146.5 330t373.5 131q229 0 375.5 -132t146.5 -333q0 -106 -49.5 -199t-144.5 -165l65 -90q11 -15 17 -19t14 -4q6 0 14 2t19 6l14 -18l-207 -129l-12 18q11 15 14.5 22t4.5 13q0 6 -13 28
q-1 2 -2 3zM659 209q-37 65 -74 92t-96 33l7 20q36 15 62 21t50 6q54 0 95.5 -22.5t89.5 -77.5q29 31 46 75t17 90q0 101 -71 169.5t-179 68.5t-177 -67.5t-69 -174.5q0 -106 66.5 -172.5t171.5 -66.5q11 0 26.5 1.5t34.5 4.5z" />
    <glyph glyph-name="r" unicode="r" horiz-adv-x="1241" 
d="M459 690v-174h198q107 0 154 21t47 67q0 48 -43 67t-164 19h-192zM776 883q169 0 261.5 -74.5t92.5 -208.5q0 -101 -58.5 -170.5t-170.5 -99.5l113 -180q41 -66 66.5 -89.5t58.5 -31.5v-29h-385v29q15 3 23.5 11t8.5 19q0 17 -21 53q-4 7 -5 9l-125 205h-176v-238
q0 -28 10 -39.5t43 -19.5v-29h-371v29q32 7 42 18t10 41v705q0 30 -10 41.5t-42 20.5v28h635z" />
    <glyph glyph-name="s" unicode="s" horiz-adv-x="1198" 
d="M909 608q1 3 2 8q2 11 2 15q0 35 -102.5 66.5t-224.5 31.5q-98 0 -159.5 -27.5t-61.5 -68.5q0 -62 231 -73q40 -2 62 -3q217 -11 315 -75t98 -193q0 -136 -128.5 -221.5t-338.5 -85.5q-242 0 -438 69q-25 8 -29 8q-6 0 -13.5 -5t-21.5 -21l-26 10l125 272l26 -10
q0 -1 -1 -3q-3 -9 -3 -13q0 -50 116.5 -92.5t266.5 -42.5q103 0 162 28.5t59 77.5q0 95 -260 104q-12 0 -18 1q-211 7 -314.5 70t-103.5 183q0 126 121.5 204.5t320.5 78.5q122 0 260.5 -39t149.5 -39q12 0 20.5 5.5t16.5 17.5l24 -10l-110 -238z" />
    <glyph glyph-name="t" unicode="t" horiz-adv-x="1227" 
d="M229 664q-28 0 -39.5 -10.5t-19.5 -43.5h-29v324h29q8 -32 19 -41.5t40 -9.5h768q31 0 42.5 10t19.5 41h28v-324h-28q-8 32 -20 43t-42 11h-249v-576q0 -30 9.5 -41t41.5 -18v-29h-371v29q33 8 43 19.5t10 39.5v576h-252z" />
    <glyph glyph-name="u" unicode="u" horiz-adv-x="1323" 
d="M461 416q0 -115 46.5 -164t151.5 -49q110 0 157.5 47t47.5 162v381q0 29 -10.5 41t-42.5 20v29h371v-28q-31 -8 -41.5 -19.5t-10.5 -42.5v-433q0 -187 -118.5 -282.5t-352.5 -95.5q-235 0 -349.5 95.5t-114.5 293.5v422q0 29 -11 41t-43 20v29h371v-28q-30 -8 -40.5 -20
t-10.5 -42v-377z" />
    <glyph glyph-name="v" unicode="v" horiz-adv-x="1139" 
d="M793 770q6 14 10 27t4 20q0 12 -10.5 21.5t-30.5 15.5v29h338v-29q-21 -21 -40.5 -53t-47.5 -94l-266 -594q-6 -13 -9.5 -25.5t-3.5 -17.5q0 -15 10.5 -25t32.5 -16v-29h-407v29q20 6 30.5 15t10.5 22q0 7 -3.5 20.5t-9.5 26.5l-315 680l-6 12q-16 37 -47 49v29h397v-29
q-20 -6 -30.5 -15.5t-10.5 -21.5q0 -5 4 -16.5t13 -30.5l198 -430z" />
    <glyph glyph-name="w" unicode="w" horiz-adv-x="1636" 
d="M102 797q-9 29 -20 40t-31 17v29h348v-29q-20 -3 -29.5 -12.5t-9.5 -28.5q0 -7 2.5 -16t8.5 -25l145 -436l142 437q2 6 3.5 15.5t2.5 22.5q-1 20 -9.5 30t-25.5 13v29h428v-29q-22 -6 -30.5 -15.5t-8.5 -27.5q0 -9 6 -33q1 -5 2 -8l127 -436l152 438q10 27 12 43
q0 14 -9.5 23.5t-29.5 15.5v29h319v-29q-47 -40 -85 -139l-3 -7l-215 -596q-4 -11 -7 -23t-3 -19q0 -14 9.5 -24t29.5 -17v-29h-377l1 33q21 5 29.5 15t8.5 28q0 10 -1.5 18t-6.5 21l-152 518l-159 -520q-5 -14 -8 -26t-3 -17q0 -14 9.5 -24t29.5 -17v-29h-395v32
q23 6 31 15t8 29q0 10 -1.5 19.5t-4.5 18.5z" />
    <glyph glyph-name="x" unicode="x" horiz-adv-x="1112" 
d="M1030 88q20 -26 39 -39t45 -20v-29h-446v31h6q16 0 24.5 6.5t8.5 17.5q0 16 -29 51q-1 1 -2 3l-125 155l-129 -155q-15 -18 -23 -32.5t-8 -25.5q0 -9 9 -14.5t24 -5.5h10v-31h-432v31q43 12 81 58l1 1l307 371l-268 336l-2 2q-40 47 -80 57v27h446v-27h-10
q-15 0 -25 -6.5t-10 -15.5t6 -19.5t27 -38.5l86 -110l97 111q14 17 23 33.5t9 25.5q0 8 -9.5 14t-25.5 6h-10v27h432v-27q-42 -11 -78 -55q-2 -2 -4 -5l-274 -329z" />
    <glyph glyph-name="y" unicode="y" horiz-adv-x="1012" 
d="M668 774q15 21 22.5 36.5t7.5 23.5t-9.5 14t-24.5 6h-11v29h348v-29q-30 -21 -58 -60q-6 -10 -9 -14l-287 -393v-299q0 -28 10 -39.5t43 -19.5v-29h-370v29q33 8 43 19.5t10 39.5v270l-295 410q-28 40 -49 59.5t-43 26.5v29h416v-29h-11q-14 0 -22 -6.5t-8 -18.5
q0 -9 6.5 -24.5t17.5 -30.5l135 -190z" />
    <glyph glyph-name="z" unicode="z" horiz-adv-x="1171" 
d="M946 219q29 0 40.5 9.5t21.5 41.5h28v-321h-28q-10 32 -21.5 41.5t-40.5 9.5h-842v18l465 646h-344q-28 0 -39.5 -10t-19.5 -42h-29v322h29q7 -32 18.5 -41.5t40.5 -9.5h807v-15l-469 -649h383z" />
    <glyph glyph-name="braceleft" unicode="{" 
d="M874 1477v-179q-8 0 -24 1t-23 1q-109 0 -147.5 -41.5t-38.5 -173.5v-241q0 -155 -44 -220.5t-159 -93.5q114 -27 158.5 -92.5t44.5 -220.5v-240q0 -132 39.5 -174.5t148.5 -42.5q7 0 22 1t23 1v-176h-63q-102 0 -165.5 12t-106.5 37q-57 34 -80 96t-23 203v248
q0 144 -52.5 203t-178.5 59q-7 0 -21.5 -1t-21.5 -1v179q7 0 21.5 -1.5t21.5 -1.5q126 0 178.5 59t52.5 202v247q0 145 23 206.5t80 94.5q44 27 109 38.5t181 11.5h45z" />
    <glyph glyph-name="bar" unicode="|" 
d="M424 1565h178v-2048h-178v2048z" />
    <glyph glyph-name="braceright" unicode="}" 
d="M152 1477h45q115 0 179.5 -11.5t108.5 -38.5q57 -33 80 -95t23 -206v-247q0 -144 52 -202.5t179 -58.5q6 0 21 1.5t22 1.5v-179q-7 0 -21.5 1t-21.5 1q-126 0 -178.5 -59t-52.5 -203v-248q0 -143 -23 -204t-80 -95q-43 -26 -108 -37.5t-180 -11.5h-45v176q8 0 23 -1
t22 -1q109 0 147.5 42t38.5 175v240q0 153 45 219t160 94q-115 28 -160 93.5t-45 220.5v241q0 132 -38 173.5t-146 41.5q-7 0 -23 -1t-24 -1v179z" />
    <glyph glyph-name="asciitilde" unicode="~" horiz-adv-x="1706" 
d="M1530 784v-184q-103 -71 -197.5 -106t-183.5 -35q-44 0 -92.5 8.5t-98.5 26.5q-25 8 -76 26q-212 74 -319 74q-82 0 -174 -38t-211 -122v187q106 72 202 107.5t185 35.5q62 0 125.5 -12t168.5 -48q13 -4 42 -15q164 -58 250 -58q85 0 177 37t202 116z" />
    <glyph glyph-name="Adieresis" unicode="&#xc4;" horiz-adv-x="1348" 
d="M471 408h360l-186 473zM922 0v29q20 5 29.5 13.5t9.5 23.5q0 7 -3 17.5t-10 29.5l-43 116h-499l-44 -116q-4 -10 -6 -18.5t-2 -16.5q0 -19 10.5 -31t32.5 -18v-29h-366v29q54 28 90 131q4 11 6 16l283 774q8 23 13 40t5 24q0 16 -7 23.5t-24 9.5v28h535v-28
q-17 -2 -24 -9.5t-7 -23.5q0 -6 5.5 -24t13.5 -40l342 -862q0 -1 1 -3q17 -43 52 -56v-29h-393zM735 1369q0 47 36 82.5t85 35.5t84 -34.5t35 -83.5q0 -54 -33.5 -88.5t-85.5 -34.5q-50 0 -85.5 36t-35.5 87zM371 1369q0 47 36 82.5t85 35.5t84 -34.5t35 -83.5
q0 -54 -33.5 -88.5t-85.5 -34.5q-51 0 -86 36t-35 87z" />
    <glyph glyph-name="Aring" unicode="&#xc5;" horiz-adv-x="1348" 
d="M537 1395q0 -57 39 -96t96 -39q56 0 95.5 39t39.5 96q0 56 -39.5 95.5t-95.5 39.5q-57 0 -96 -39.5t-39 -95.5zM420 1395q0 105 73 178.5t179 73.5t179 -73t73 -179t-73 -179t-179 -73t-179 73t-73 179zM471 408h360l-186 473zM922 0v29q20 5 29.5 13.5t9.5 23.5
q0 7 -3 17.5t-10 29.5l-43 116h-499l-44 -116q-4 -10 -6 -18.5t-2 -16.5q0 -19 10.5 -31t32.5 -18v-29h-366v29q54 28 90 131q4 11 6 16l283 774q8 23 13 40t5 24q0 16 -7 23.5t-24 9.5v28h535v-28q-17 -2 -24 -9.5t-7 -23.5q0 -6 5.5 -24t13.5 -40l342 -862q0 -1 1 -3
q17 -43 52 -56v-29h-393z" />
    <glyph glyph-name="Ccedilla" unicode="&#xc7;" horiz-adv-x="1368" 
d="M1115 691q2 4 3.5 9t1.5 9q0 44 -102 83t-225 39q-173 0 -277 -79t-104 -209t99 -205.5t271 -75.5q99 0 168.5 17.5t143.5 58.5q20 11 26 19t6 20q0 6 -1.5 14t-3.5 17l24 14l205 -334l-27 -12q-14 13 -23.5 19.5t-15.5 6.5q-9 0 -48 -18q-213 -102 -450 -102
q-318 0 -505 152t-187 405q0 246 183 400.5t483 154.5q158 0 315.5 -46.5t159.5 -46.5q14 1 25 8t26 25l25 -10l-170 -344zM450 -377l41 90q78 -42 133.5 -57.5t114.5 -15.5q39 0 62.5 22t23.5 59q0 43 -26 64.5t-79 21.5q-14 0 -28 -1.5t-29 -3.5v198h70v-114q8 0 25 3
q36 4 48 5q79 0 129 -48t50 -125q0 -84 -60.5 -131t-169.5 -47q-57 0 -125 17.5t-180 62.5z" />
    <glyph glyph-name="Eacute" unicode="&#xc9;" horiz-adv-x="1407" 
d="M1133 254q28 0 39.5 9.5t19.5 41.5h29v-356h-29q-8 32 -19 41.5t-40 9.5h-971v29q32 7 41.5 18t9.5 41v899q0 30 -9.5 41t-41.5 19v28h973q28 0 39.5 10.5t17.5 42.5h29v-358h-29q-7 32 -18.5 41.5t-38.5 9.5h-619v-151h371q29 0 40.5 9.5t21.5 41.5h28v-334h-29
q-9 32 -21 41.5t-40 9.5h-371v-184h617zM559 1205l273 280q42 44 73.5 63t61.5 19q40 0 65 -25t25 -65q0 -32 -19 -55t-75 -53l-313 -164h-91z" />
    <glyph glyph-name="Ntilde" unicode="&#xd1;" horiz-adv-x="1552" 
d="M473 88q0 -30 9.5 -41t41.5 -18v-29h-362v29q32 7 41.5 18t9.5 41v899q0 30 -9.5 41t-41.5 19v28h471v-28q-20 -6 -30.5 -15t-10.5 -20q0 -12 23 -37q6 -6 10 -11l452 -495v518q0 29 -10 40.5t-43 19.5v28h369v-28q-33 -8 -43.5 -19.5t-10.5 -40.5v-899q0 -28 10.5 -39.5
t43.5 -19.5v-29h-389v29q20 5 30 14t10 20q0 13 -28 45l-4 4l-539 590v-614zM1065 1526q-17 -123 -70 -184.5t-143 -61.5q-13 1 -25.5 2.5t-24.5 4.5l-104 26q-23 6 -35.5 8t-21.5 2q-32 0 -53.5 -20.5t-36.5 -67.5h-66q17 124 69.5 185t141.5 61q17 0 32.5 -2t31.5 -6
l108 -27q2 0 5 -1q23 -7 34 -7q32 0 54 21t38 67h66z" />
    <glyph glyph-name="Odieresis" unicode="&#xd6;" horiz-adv-x="1456" 
d="M727 -18q-275 0 -454 159t-179 398q0 240 178 397.5t455 157.5t455 -157.5t178 -397.5q0 -239 -179 -398t-454 -159zM408 537q0 -139 87 -222.5t234 -83.5q144 0 231 84t87 222q0 137 -88 222t-232 85q-143 0 -231 -85t-88 -222zM790 1369q0 47 36 82.5t85 35.5t84 -34.5
t35 -83.5q0 -54 -33.5 -88.5t-85.5 -34.5q-50 0 -85.5 36t-35.5 87zM426 1369q0 47 36 82.5t85 35.5t84 -34.5t35 -83.5q0 -54 -33.5 -88.5t-85.5 -34.5q-51 0 -86 36t-35 87z" />
    <glyph glyph-name="Udieresis" unicode="&#xdc;" horiz-adv-x="1540" 
d="M1020 987q0 31 -10.5 43t-42.5 19v26h411v-26q-32 -8 -42.5 -20t-10.5 -42v-538q0 -232 -141 -349.5t-418 -117.5q-279 0 -416 119.5t-137 363.5v522q0 31 -10.5 43t-42.5 19v26h407v-26q-31 -6 -41 -18t-10 -44v-469q0 -146 57 -204t195 -58q136 0 194 57.5t58 200.5
v473zM831 1369q0 47 36 82.5t85 35.5t84 -34.5t35 -83.5q0 -54 -33.5 -88.5t-85.5 -34.5q-50 0 -85.5 36t-35.5 87zM467 1369q0 47 36 82.5t85 35.5t84 -34.5t35 -83.5q0 -54 -33.5 -88.5t-85.5 -34.5q-51 0 -86 36t-35 87z" />
    <glyph glyph-name="aacute" unicode="&#xe1;" horiz-adv-x="1184" 
d="M428 334h289l-150 368zM819 883v-29q-17 -2 -23.5 -8t-7.5 -21q0 -14 4.5 -30.5t12.5 -36.5l274 -670q1 -1 1 -2q17 -43 50 -57v-29h-350l1 29q19 4 28.5 14.5t9.5 28.5q0 6 -3 17.5t-7 23.5l-31 75h-405l-29 -75q-1 -4 -3 -10q-5 -17 -5 -25q0 -19 10 -31t33 -18v-29
h-328v29q26 12 45.5 39.5t50.5 107.5l218 582q8 22 12 37t4 24q0 18 -6.5 26t-22.5 10v28h467zM397 1012l273 280q42 44 73.5 63t61.5 19q40 0 65 -25t25 -65q0 -32 -19 -55t-75 -53l-313 -164h-91z" />
    <glyph glyph-name="agrave" unicode="&#xe0;" horiz-adv-x="1184" 
d="M428 334h289l-150 368zM819 883v-29q-17 -2 -23.5 -8t-7.5 -21q0 -14 4.5 -30.5t12.5 -36.5l274 -670q1 -1 1 -2q17 -43 50 -57v-29h-350l1 29q19 4 28.5 14.5t9.5 28.5q0 6 -3 17.5t-7 23.5l-31 75h-405l-29 -75q-1 -4 -3 -10q-5 -17 -5 -25q0 -19 10 -31t33 -18v-29
h-328v29q26 12 45.5 39.5t50.5 107.5l218 582q8 22 12 37t4 24q0 18 -6.5 26t-22.5 10v28h467zM787 1012h-91l-313 164q-56 30 -75 53t-19 55q0 40 25 65t65 25q30 0 61.5 -19t73.5 -63z" />
    <glyph glyph-name="acircumflex" unicode="&#xe2;" horiz-adv-x="1184" 
d="M428 334h289l-150 368zM819 883v-29q-17 -2 -23.5 -8t-7.5 -21q0 -14 4.5 -30.5t12.5 -36.5l274 -670q1 -1 1 -2q17 -43 50 -57v-29h-350l1 29q19 4 28.5 14.5t9.5 28.5q0 6 -3 17.5t-7 23.5l-31 75h-405l-29 -75q-1 -4 -3 -10q-5 -17 -5 -25q0 -19 10 -31t33 -18v-29
h-328v29q26 12 45.5 39.5t50.5 107.5l218 582q8 22 12 37t4 24q0 18 -6.5 26t-22.5 10v28h467zM293 1012l225 348h148l225 -348h-84l-215 178l-215 -178h-84z" />
    <glyph glyph-name="adieresis" unicode="&#xe4;" horiz-adv-x="1184" 
d="M428 334h289l-150 368zM819 883v-29q-17 -2 -23.5 -8t-7.5 -21q0 -14 4.5 -30.5t12.5 -36.5l274 -670q1 -1 1 -2q17 -43 50 -57v-29h-350l1 29q19 4 28.5 14.5t9.5 28.5q0 6 -3 17.5t-7 23.5l-31 75h-405l-29 -75q-1 -4 -3 -10q-5 -17 -5 -25q0 -19 10 -31t33 -18v-29
h-328v29q26 12 45.5 39.5t50.5 107.5l218 582q8 22 12 37t4 24q0 18 -6.5 26t-22.5 10v28h467zM653 1176q0 47 36 82.5t85 35.5t84 -34.5t35 -83.5q0 -54 -33.5 -88.5t-85.5 -34.5q-50 0 -85.5 36t-35.5 87zM289 1176q0 47 36 82.5t85 35.5t84 -34.5t35 -83.5
q0 -54 -33.5 -88.5t-85.5 -34.5q-51 0 -86 36t-35 87z" />
    <glyph glyph-name="atilde" unicode="&#xe3;" horiz-adv-x="1184" 
d="M428 334h289l-150 368zM819 883v-29q-17 -2 -23.5 -8t-7.5 -21q0 -14 4.5 -30.5t12.5 -36.5l274 -670q1 -1 1 -2q17 -43 50 -57v-29h-350l1 29q19 4 28.5 14.5t9.5 28.5q0 6 -3 17.5t-7 23.5l-31 75h-405l-29 -75q-1 -4 -3 -10q-5 -17 -5 -25q0 -19 10 -31t33 -18v-29
h-328v29q26 12 45.5 39.5t50.5 107.5l218 582q8 22 12 37t4 24q0 18 -6.5 26t-22.5 10v28h467zM881 1333q-17 -123 -70 -184.5t-143 -61.5q-13 1 -25.5 2.5t-24.5 4.5l-104 26q-23 6 -35.5 8t-21.5 2q-32 0 -53.5 -20.5t-36.5 -67.5h-66q17 124 69.5 185t141.5 61
q17 0 32.5 -2t31.5 -6l108 -27q2 0 5 -1q23 -7 34 -7q32 0 54 21t38 67h66z" />
    <glyph glyph-name="aring" unicode="&#xe5;" horiz-adv-x="1184" 
d="M428 334h289l-150 368zM819 883v-29q-17 -2 -23.5 -8t-7.5 -21q0 -14 4.5 -30.5t12.5 -36.5l274 -670q1 -1 1 -2q17 -43 50 -57v-29h-350l1 29q19 4 28.5 14.5t9.5 28.5q0 6 -3 17.5t-7 23.5l-31 75h-405l-29 -75q-1 -4 -3 -10q-5 -17 -5 -25q0 -19 10 -31t33 -18v-29
h-328v29q26 12 45.5 39.5t50.5 107.5l218 582q8 22 12 37t4 24q0 18 -6.5 26t-22.5 10v28h467zM457 1245q0 -57 39 -96t96 -39q56 0 95.5 39.5t39.5 95.5q0 55 -40 95t-95 40q-56 0 -95.5 -39.5t-39.5 -95.5zM340 1245q0 105 73.5 178.5t178.5 73.5q106 0 179 -73t73 -179
t-73 -179t-179 -73t-179 73t-73 179z" />
    <glyph glyph-name="ccedilla" unicode="&#xe7;" horiz-adv-x="1186" 
d="M963 557l-25 8q2 4 3 8t1 7q0 38 -81 69t-185 31q-144 0 -231 -64.5t-87 -171.5q0 -106 83.5 -167.5t230.5 -61.5q69 0 126.5 14.5t123.5 49.5q14 8 20 15t6 15q0 7 -1.5 13t-4.5 14l25 10l174 -276l-21 -13q-16 14 -23 18.5t-14 4.5q-5 0 -34 -14q-179 -86 -379 -86
q-269 0 -426.5 126t-157.5 336q0 204 154.5 332.5t406.5 128.5q133 0 265 -39l132 -39q11 0 20 5.5t23 21.5l23 -8zM360 -377l41 90q78 -42 133.5 -57.5t114.5 -15.5q39 0 62.5 22t23.5 59q0 43 -26 64.5t-79 21.5q-14 0 -28 -1.5t-29 -3.5v198h70v-114q8 0 25 3q36 4 48 5
q79 0 129 -48t50 -125q0 -84 -60.5 -131t-169.5 -47q-57 0 -125 17.5t-180 62.5z" />
    <glyph glyph-name="eacute" unicode="&#xe9;" horiz-adv-x="1214" 
d="M457 664v-125h284q30 0 41 9t21 42h28v-295h-28q-10 33 -21.5 43t-40.5 10h-284v-129h493q30 0 41 10t19 41h28v-321h-28q-8 32 -19 41.5t-41 9.5h-811v29q33 8 43.5 19.5t10.5 39.5v705q0 29 -11 41t-43 20v29h811q30 0 41 9.5t19 41.5h28v-322h-28q-8 32 -19.5 42
t-40.5 10h-493zM413 1012l273 280q42 44 73.5 63t61.5 19q40 0 65 -25t25 -65q0 -32 -19 -55t-75 -53l-313 -164h-91z" />
    <glyph glyph-name="egrave" unicode="&#xe8;" horiz-adv-x="1214" 
d="M457 664v-125h284q30 0 41 9t21 42h28v-295h-28q-10 33 -21.5 43t-40.5 10h-284v-129h493q30 0 41 10t19 41h28v-321h-28q-8 32 -19 41.5t-41 9.5h-811v29q33 8 43.5 19.5t10.5 39.5v705q0 29 -11 41t-43 20v29h811q30 0 41 9.5t19 41.5h28v-322h-28q-8 32 -19.5 42
t-40.5 10h-493zM803 1012h-91l-313 164q-56 30 -75 53t-19 55q0 40 25 65t65 25q30 0 61.5 -19t73.5 -63z" />
    <glyph glyph-name="ecircumflex" unicode="&#xea;" horiz-adv-x="1214" 
d="M457 664v-125h284q30 0 41 9t21 42h28v-295h-28q-10 33 -21.5 43t-40.5 10h-284v-129h493q30 0 41 10t19 41h28v-321h-28q-8 32 -19 41.5t-41 9.5h-811v29q33 8 43.5 19.5t10.5 39.5v705q0 29 -11 41t-43 20v29h811q30 0 41 9.5t19 41.5h28v-322h-28q-8 32 -19.5 42
t-40.5 10h-493zM309 1012l225 348h148l225 -348h-84l-215 178l-215 -178h-84z" />
    <glyph glyph-name="edieresis" unicode="&#xeb;" horiz-adv-x="1214" 
d="M457 664v-125h284q30 0 41 9t21 42h28v-295h-28q-10 33 -21.5 43t-40.5 10h-284v-129h493q30 0 41 10t19 41h28v-321h-28q-8 32 -19 41.5t-41 9.5h-811v29q33 8 43.5 19.5t10.5 39.5v705q0 29 -11 41t-43 20v29h811q30 0 41 9.5t19 41.5h28v-322h-28q-8 32 -19.5 42
t-40.5 10h-493zM669 1176q0 47 36 82.5t85 35.5t84 -34.5t35 -83.5q0 -54 -33.5 -88.5t-85.5 -34.5q-50 0 -85.5 36t-35.5 87zM305 1176q0 47 36 82.5t85 35.5t84 -34.5t35 -83.5q0 -54 -33.5 -88.5t-85.5 -34.5q-51 0 -86 36t-35 87z" />
    <glyph glyph-name="iacute" unicode="&#xed;" horiz-adv-x="653" 
d="M459 88q0 -28 10 -39.5t43 -19.5v-29h-371v29q32 7 42 18t10 41v705q0 30 -10 41.5t-42 20.5v28h371v-29q-32 -8 -42.5 -20t-10.5 -41v-705zM133 1012l273 280q42 44 73.5 63t61.5 19q40 0 65 -25t25 -65q0 -32 -19 -55t-75 -53l-313 -164h-91z" />
    <glyph glyph-name="igrave" unicode="&#xec;" horiz-adv-x="653" 
d="M459 88q0 -28 10 -39.5t43 -19.5v-29h-371v29q32 7 42 18t10 41v705q0 30 -10 41.5t-42 20.5v28h371v-29q-32 -8 -42.5 -20t-10.5 -41v-705zM523 1012h-91l-313 164q-56 30 -75 53t-19 55q0 40 25 65t65 25q30 0 61.5 -19t73.5 -63z" />
    <glyph glyph-name="icircumflex" unicode="&#xee;" horiz-adv-x="653" 
d="M459 88q0 -28 10 -39.5t43 -19.5v-29h-371v29q32 7 42 18t10 41v705q0 30 -10 41.5t-42 20.5v28h371v-29q-32 -8 -42.5 -20t-10.5 -41v-705zM29 1012l225 348h148l225 -348h-84l-215 178l-215 -178h-84z" />
    <glyph glyph-name="idieresis" unicode="&#xef;" horiz-adv-x="653" 
d="M459 88q0 -28 10 -39.5t43 -19.5v-29h-371v29q32 7 42 18t10 41v705q0 30 -10 41.5t-42 20.5v28h371v-29q-32 -8 -42.5 -20t-10.5 -41v-705zM389 1176q0 47 36 82.5t85 35.5t84 -34.5t35 -83.5q0 -54 -33.5 -88.5t-85.5 -34.5q-50 0 -85.5 36t-35.5 87zM25 1176
q0 47 36 82.5t85 35.5t84 -34.5t35 -83.5q0 -54 -33.5 -88.5t-85.5 -34.5q-51 0 -86 36t-35 87z" />
    <glyph glyph-name="ntilde" unicode="&#xf1;" horiz-adv-x="1335" 
d="M596 883v-31q-20 -4 -30.5 -13.5t-10.5 -23.5q0 -11 5 -26t9 -19l361 -381v404q0 28 -10 39.5t-43 19.5v31h313v-31q-32 -8 -41.5 -19t-9.5 -40v-705q0 -30 9.5 -41t41.5 -18v-29h-373v29q21 6 32 16t11 23q0 10 -5 25.5t-9 19.5l-445 469v-494q0 -28 10.5 -39.5
t43.5 -19.5v-29h-314v29q32 7 42 18t10 41v705q0 30 -10.5 41.5t-41.5 17.5v31h455zM957 1333q-17 -123 -70 -184.5t-143 -61.5q-13 1 -25.5 2.5t-24.5 4.5l-104 26q-23 6 -35.5 8t-21.5 2q-32 0 -53.5 -20.5t-36.5 -67.5h-66q17 124 69.5 185t141.5 61q17 0 32.5 -2
t31.5 -6l108 -27q2 0 5 -1q23 -7 34 -7q32 0 54 21t38 67h66z" />
    <glyph glyph-name="oacute" unicode="&#xf3;" horiz-adv-x="1214" 
d="M604 903q230 0 377 -130.5t147 -330.5q0 -198 -147.5 -329t-376.5 -131q-225 0 -372.5 131.5t-147.5 328.5q0 198 146.5 329.5t373.5 131.5zM358 444q0 -105 69 -172t179 -67t179 67t69 172t-69 172.5t-179 67.5q-109 0 -178.5 -67t-69.5 -173zM413 1012l273 280
q42 44 73.5 63t61.5 19q40 0 65 -25t25 -65q0 -32 -19 -55t-75 -53l-313 -164h-91z" />
    <glyph glyph-name="ograve" unicode="&#xf2;" horiz-adv-x="1214" 
d="M604 903q230 0 377 -130.5t147 -330.5q0 -198 -147.5 -329t-376.5 -131q-225 0 -372.5 131.5t-147.5 328.5q0 198 146.5 329.5t373.5 131.5zM358 444q0 -105 69 -172t179 -67t179 67t69 172t-69 172.5t-179 67.5q-109 0 -178.5 -67t-69.5 -173zM803 1012h-91l-313 164
q-56 30 -75 53t-19 55q0 40 25 65t65 25q30 0 61.5 -19t73.5 -63z" />
    <glyph glyph-name="ocircumflex" unicode="&#xf4;" horiz-adv-x="1214" 
d="M604 903q230 0 377 -130.5t147 -330.5q0 -198 -147.5 -329t-376.5 -131q-225 0 -372.5 131.5t-147.5 328.5q0 198 146.5 329.5t373.5 131.5zM358 444q0 -105 69 -172t179 -67t179 67t69 172t-69 172.5t-179 67.5q-109 0 -178.5 -67t-69.5 -173zM309 1012l225 348h148
l225 -348h-84l-215 178l-215 -178h-84z" />
    <glyph glyph-name="odieresis" unicode="&#xf6;" horiz-adv-x="1214" 
d="M604 903q230 0 377 -130.5t147 -330.5q0 -198 -147.5 -329t-376.5 -131q-225 0 -372.5 131.5t-147.5 328.5q0 198 146.5 329.5t373.5 131.5zM358 444q0 -105 69 -172t179 -67t179 67t69 172t-69 172.5t-179 67.5q-109 0 -178.5 -67t-69.5 -173zM669 1176q0 47 36 82.5
t85 35.5t84 -34.5t35 -83.5q0 -54 -33.5 -88.5t-85.5 -34.5q-50 0 -85.5 36t-35.5 87zM305 1176q0 47 36 82.5t85 35.5t84 -34.5t35 -83.5q0 -54 -33.5 -88.5t-85.5 -34.5q-51 0 -86 36t-35 87z" />
    <glyph glyph-name="otilde" unicode="&#xf5;" horiz-adv-x="1214" 
d="M604 903q230 0 377 -130.5t147 -330.5q0 -198 -147.5 -329t-376.5 -131q-225 0 -372.5 131.5t-147.5 328.5q0 198 146.5 329.5t373.5 131.5zM358 444q0 -105 69 -172t179 -67t179 67t69 172t-69 172.5t-179 67.5q-109 0 -178.5 -67t-69.5 -173zM897 1333
q-17 -123 -70 -184.5t-143 -61.5q-13 1 -25.5 2.5t-24.5 4.5l-104 26q-23 6 -35.5 8t-21.5 2q-32 0 -53.5 -20.5t-36.5 -67.5h-66q17 124 69.5 185t141.5 61q17 0 32.5 -2t31.5 -6l108 -27q2 0 5 -1q23 -7 34 -7q32 0 54 21t38 67h66z" />
    <glyph glyph-name="uacute" unicode="&#xfa;" horiz-adv-x="1323" 
d="M461 416q0 -115 46.5 -164t151.5 -49q110 0 157.5 47t47.5 162v381q0 29 -10.5 41t-42.5 20v29h371v-28q-31 -8 -41.5 -19.5t-10.5 -42.5v-433q0 -187 -118.5 -282.5t-352.5 -95.5q-235 0 -349.5 95.5t-114.5 293.5v422q0 29 -11 41t-43 20v29h371v-28q-30 -8 -40.5 -20
t-10.5 -42v-377zM467 1012l273 280q42 44 73.5 63t61.5 19q40 0 65 -25t25 -65q0 -32 -19 -55t-75 -53l-313 -164h-91z" />
    <glyph glyph-name="ugrave" unicode="&#xf9;" horiz-adv-x="1323" 
d="M461 416q0 -115 46.5 -164t151.5 -49q110 0 157.5 47t47.5 162v381q0 29 -10.5 41t-42.5 20v29h371v-28q-31 -8 -41.5 -19.5t-10.5 -42.5v-433q0 -187 -118.5 -282.5t-352.5 -95.5q-235 0 -349.5 95.5t-114.5 293.5v422q0 29 -11 41t-43 20v29h371v-28q-30 -8 -40.5 -20
t-10.5 -42v-377zM857 1012h-91l-313 164q-56 30 -75 53t-19 55q0 40 25 65t65 25q30 0 61.5 -19t73.5 -63z" />
    <glyph glyph-name="ucircumflex" unicode="&#xfb;" horiz-adv-x="1323" 
d="M461 416q0 -115 46.5 -164t151.5 -49q110 0 157.5 47t47.5 162v381q0 29 -10.5 41t-42.5 20v29h371v-28q-31 -8 -41.5 -19.5t-10.5 -42.5v-433q0 -187 -118.5 -282.5t-352.5 -95.5q-235 0 -349.5 95.5t-114.5 293.5v422q0 29 -11 41t-43 20v29h371v-28q-30 -8 -40.5 -20
t-10.5 -42v-377zM363 1012l225 348h148l225 -348h-84l-215 178l-215 -178h-84z" />
    <glyph glyph-name="udieresis" unicode="&#xfc;" horiz-adv-x="1323" 
d="M461 416q0 -115 46.5 -164t151.5 -49q110 0 157.5 47t47.5 162v381q0 29 -10.5 41t-42.5 20v29h371v-28q-31 -8 -41.5 -19.5t-10.5 -42.5v-433q0 -187 -118.5 -282.5t-352.5 -95.5q-235 0 -349.5 95.5t-114.5 293.5v422q0 29 -11 41t-43 20v29h371v-28q-30 -8 -40.5 -20
t-10.5 -42v-377zM723 1176q0 47 36 82.5t85 35.5t84 -34.5t35 -83.5q0 -54 -33.5 -88.5t-85.5 -34.5q-50 0 -85.5 36t-35.5 87zM359 1176q0 47 36 82.5t85 35.5t84 -34.5t35 -83.5q0 -54 -33.5 -88.5t-85.5 -34.5q-51 0 -86 36t-35 87z" />
    <glyph glyph-name="dagger" unicode="&#x2020;" 
d="M399 991q0 2 -1 6q-12 44 -48 56v22h320v-22q-37 -11 -46 -49l-3 -12l-60 -216l192 55q13 4 32 8q57 13 67 54h25v-324h-25q-10 43 -70 56q-21 5 -33 8l-188 53l60 -824q1 -28 11 -39.5t38 -19.5v-24h-320v24q28 8 37.5 19t11.5 40l64 824l-194 -53q-11 -3 -31 -8
q-56 -13 -66 -56h-25v324h25q10 -42 70 -56q20 -5 31 -8l190 -53z" />
    <glyph glyph-name="degree" unicode="&#xb0;" horiz-adv-x="674" 
d="M338 1350q-77 0 -131.5 -54t-54.5 -131q0 -76 54.5 -131t131.5 -55t130.5 54.5t53.5 131.5t-53.5 131t-130.5 54zM338 1460q121 0 208 -87t87 -210q0 -121 -87 -208t-210 -87t-208 85.5t-85 209.5q0 125 86 211t209 86z" />
    <glyph glyph-name="cent" unicode="&#xa2;" horiz-adv-x="1305" 
d="M1120 109l-24 -19q-21 14 -29 18.5t-14 4.5q-1 0 -116 -53.5t-243 -53.5q-24 0 -73 4q-22 2 -33 2l-103 -256h-159l118 291q-122 53 -189 150t-67 221q0 179 129 293t336 114q26 0 51.5 -1.5t51.5 -3.5l94 233h160l-108 -267q15 -3 57 -15.5t65 -12.5q10 0 18.5 5
t24.5 23l27 -12l-138 -278l-26 14q2 7 3 13t1 14q0 24 -28 43t-93 36l-166 -411q13 -1 26.5 -1.5t31.5 -0.5q68 0 131 35t63 63q0 5 -11 33q-2 5 -3 8l22 18zM543 240l159 397q-5 0 -15 1t-15 1q-105 0 -169.5 -61.5t-64.5 -159.5q0 -59 27 -105t78 -73z" />
    <glyph glyph-name="sterling" unicode="&#xa3;" horiz-adv-x="1305" 
d="M156 186q98 26 142 86t44 170q0 20 -1.5 48t-5.5 67h-179v117h169q-2 26 -2.5 37.5t-0.5 21.5q0 173 114.5 267t325.5 94q178 0 362 -104q47 -27 60 -27q5 0 15.5 5t23.5 13l22 -16l-215 -287l-22 14q6 14 9 24.5t3 16.5q0 41 -81.5 92.5t-174.5 51.5q-72 0 -116 -35.5
t-44 -91.5q0 -7 1.5 -33.5t2.5 -42.5h185v-117h-184q-4 -102 -33 -175t-91 -136h680q29 0 40.5 10t19.5 43h28v-350h-28q-8 32 -19 41.5t-41 9.5h-919q-30 0 -41 -9.5t-19 -41.5h-30v237z" />
    <glyph glyph-name="section" unicode="&#xa7;" 
d="M274 535q0 -29 24.5 -55t74.5 -52q88 -45 173 -72.5t128 -27.5q40 0 62 15.5t22 43.5t-23.5 50t-93.5 55q-116 54 -183 77t-108 23q-35 0 -55.5 -15.5t-20.5 -41.5zM776 238q39 -43 56.5 -83.5t17.5 -88.5q0 -120 -90.5 -189.5t-245.5 -69.5q-125 0 -239.5 55.5
t-116.5 55.5q-7 0 -15.5 -3.5t-25.5 -12.5l-21 14l164 219l20 -17q-4 -10 -7 -20t-3 -16q0 -33 78 -73t174 -40q60 0 92.5 20.5t32.5 57.5q0 58 -152 106q-117 37 -186 70q-103 50 -154 111t-51 135q0 69 36 118.5t120 94.5q-40 40 -57 76.5t-17 81.5q0 115 86.5 183.5
t233.5 68.5q137 0 279 -63q38 -17 49 -17q7 0 16 3.5t27 14.5l20 -14l-141 -221l-23 12q2 6 4 14q4 17 4 21q0 32 -73.5 68t-159.5 36q-55 0 -90 -21.5t-35 -54.5q0 -55 150 -107q76 -26 122 -44q156 -63 214.5 -123.5t58.5 -153.5q0 -61 -36 -109.5t-116 -94.5z" />
    <glyph glyph-name="bullet" unicode="&#x2022;" horiz-adv-x="1208" 
d="M307 762q0 123 87 209t210 86q122 0 208.5 -86.5t86.5 -208.5t-87.5 -209.5t-209.5 -87.5q-123 0 -209 87t-86 210z" />
    <glyph glyph-name="paragraph" unicode="&#xb6;" 
d="M969 1479v-99h-117v-1380h-129v1380h-168v-1380h-131v784q-168 6 -268.5 101t-100.5 245q0 158 107 253.5t284 95.5h523z" />
    <glyph glyph-name="germandbls" unicode="&#xdf;" horiz-adv-x="2396" 
d="M909 608q1 3 2 8q2 11 2 15q0 35 -102.5 66.5t-224.5 31.5q-98 0 -159.5 -27.5t-61.5 -68.5q0 -62 231 -73q40 -2 62 -3q217 -11 315 -75t98 -193q0 -136 -128.5 -221.5t-338.5 -85.5q-242 0 -438 69q-25 8 -29 8q-6 0 -13.5 -5t-21.5 -21l-26 10l125 272l26 -10
q0 -1 -1 -3q-3 -9 -3 -13q0 -50 116.5 -92.5t266.5 -42.5q103 0 162 28.5t59 77.5q0 95 -260 104q-12 0 -18 1q-211 7 -314.5 70t-103.5 183q0 126 121.5 204.5t320.5 78.5q122 0 260.5 -39t149.5 -39q12 0 20.5 5.5t16.5 17.5l24 -10l-110 -238zM2107 608q1 3 2 8
q2 11 2 15q0 35 -102.5 66.5t-224.5 31.5q-98 0 -159.5 -27.5t-61.5 -68.5q0 -62 231 -73q40 -2 62 -3q217 -11 315 -75t98 -193q0 -136 -128.5 -221.5t-338.5 -85.5q-242 0 -438 69q-25 8 -29 8q-6 0 -13.5 -5t-21.5 -21l-26 10l125 272l26 -10q0 -1 -1 -3q-3 -9 -3 -13
q0 -50 116.5 -92.5t266.5 -42.5q103 0 162 28.5t59 77.5q0 95 -260 104q-12 0 -18 1q-211 7 -314.5 70t-103.5 183q0 126 121.5 204.5t320.5 78.5q122 0 260.5 -39t149.5 -39q12 0 20.5 5.5t16.5 17.5l24 -10l-110 -238z" />
    <glyph glyph-name="registered" unicode="&#xae;" horiz-adv-x="1706" 
d="M729 1047v-261h117q100 0 146 30.5t46 96.5q0 69 -48 101.5t-152 32.5h-109zM551 1159h319q173 0 262 -57t89 -168q0 -91 -48 -150.5t-137 -78.5l185 -375h-199l-164 346h-129v-346h-178v829zM854 1362q-129 0 -240 -45.5t-200 -134.5q-92 -94 -141.5 -210t-49.5 -241
t47 -238.5t136 -203.5q90 -91 204 -140t234 -49q130 0 246.5 47t209.5 138q89 86 137 198.5t48 237.5q0 133 -45.5 247.5t-134.5 205.5q-93 92 -207.5 140t-243.5 48zM852 1470q153 0 288.5 -56t241.5 -165q103 -104 157 -236.5t54 -281.5q0 -153 -55.5 -287t-161.5 -237
q-108 -105 -243 -161t-281 -56q-147 0 -282.5 57.5t-241.5 165.5q-105 106 -160 239t-55 279q0 147 57.5 284t165.5 245q104 104 234.5 157t281.5 53z" />
    <glyph glyph-name="copyright" unicode="&#xa9;" horiz-adv-x="1706" 
d="M1206 903h-166q-10 74 -60 114t-130 40q-99 0 -155 -86.5t-56 -239.5q0 -152 57.5 -234.5t163.5 -82.5q80 0 129 43.5t60 124.5h165q-7 -135 -106.5 -217t-253.5 -82q-183 0 -290 119t-107 323q0 208 109.5 331.5t291.5 123.5q147 0 243 -77t105 -200zM854 1362
q-130 0 -243 -46.5t-201 -135.5q-90 -92 -138.5 -208t-48.5 -241q0 -126 48 -240t139 -204q90 -91 204.5 -139t239.5 -48t240 48.5t209 140.5q89 88 135.5 200.5t46.5 241.5t-47 243.5t-135 203.5q-91 90 -205 137t-244 47zM852 1470q152 0 286 -55t240 -162
q105 -105 160 -238.5t55 -283.5q0 -153 -54.5 -286t-158.5 -234q-108 -107 -244.5 -164t-283.5 -57q-146 0 -280 56.5t-240 162.5q-107 106 -163 240.5t-56 281.5q0 145 57 280.5t164 243.5q105 107 235.5 161t282.5 54z" />
    <glyph glyph-name="trademark" unicode="&#x2122;" horiz-adv-x="1706" 
d="M809 1460h170l141 -360l133 360h170v-542h-114v428l-160 -428h-59l-166 428v-428h-115v542zM225 1460h467v-94h-168v-448h-129v448h-170v94z" />
    <glyph glyph-name="acute" unicode="&#xb4;" 
d="M317 1012l273 280q42 44 73.5 63t61.5 19q40 0 65 -25t25 -65q0 -32 -19 -55t-75 -53l-313 -164h-91z" />
    <glyph glyph-name="dieresis" unicode="&#xa8;" 
d="M573 1176q0 47 36 82.5t85 35.5t84 -34.5t35 -83.5q0 -54 -33.5 -88.5t-85.5 -34.5q-50 0 -85.5 36t-35.5 87zM209 1176q0 47 36 82.5t85 35.5t84 -34.5t35 -83.5q0 -54 -33.5 -88.5t-85.5 -34.5q-51 0 -86 36t-35 87z" />
    <glyph glyph-name="notequal" unicode="&#x2260;" horiz-adv-x="1706" 
d="M1204 1212l123 -100l-170 -215h295v-162h-403l-197 -250h600v-161h-707l-249 -314l-123 99l170 215h-289v161h393l199 250h-592v162h700z" />
    <glyph glyph-name="AE" unicode="&#xc6;" horiz-adv-x="2120" 
d="M926 229h-465l-70 -116q-6 -11 -11 -26t-5 -21q0 -13 10 -22t31 -15v-29h-424v29q56 24 120 132l9 15l467 774q10 18 16 34t6 28q0 15 -9 24t-25 10l-1 29h1272q29 0 40 10.5t18 42.5h28v-356h-28q-7 32 -18 41.5t-40 9.5h-618v-153h370q31 0 43 10t19 41h29v-336h-29
q-8 32 -20 42.5t-42 10.5h-370v-184h616q29 0 40.5 9.5t19.5 41.5h28v-356h-28q-8 32 -19 41.5t-41 9.5h-971v29q32 7 42 18t10 41v141zM598 461h328v362h-107z" />
    <glyph glyph-name="Oslash" unicode="&#xd8;" horiz-adv-x="1456" 
d="M954 764l-362 -512q29 -10 60 -15.5t65 -5.5q154 0 242 83.5t88 230.5q0 64 -22.5 117t-70.5 102zM496 315l364 506q-34 12 -65.5 17.5t-61.5 5.5q-148 0 -236.5 -84.5t-88.5 -224.5q0 -65 21.5 -119.5t66.5 -100.5zM1126 977q115 -77 174.5 -188.5t59.5 -249.5
q0 -239 -179.5 -398t-453.5 -159q-70 0 -138 12.5t-138 38.5l-179 -254l-122 76l176 245q-113 84 -172.5 197t-59.5 242q0 241 180 398t461 157q71 0 136.5 -13t129.5 -39l150 209l123 -71z" />
    <glyph glyph-name="infinity" unicode="&#x221e;" horiz-adv-x="1706" 
d="M928 559q45 -81 109.5 -122.5t146.5 -41.5q97 0 159 61.5t62 157.5q0 95 -57 158.5t-142 63.5q-78 0 -142 -63.5t-136 -213.5zM780 662q-46 81 -111 123t-145 42q-98 0 -159.5 -62t-61.5 -159q0 -94 56.5 -156.5t140.5 -62.5q80 0 144.5 62.5t135.5 212.5zM862 471
q-71 -135 -148.5 -197.5t-172.5 -62.5q-137 0 -232.5 114.5t-95.5 284.5q0 179 85 289.5t220 110.5q93 0 168.5 -60t157.5 -200q71 139 149.5 200.5t184.5 61.5q127 0 222 -116t95 -284q0 -178 -84.5 -288.5t-220.5 -110.5q-92 0 -166.5 57.5t-161.5 200.5z" />
    <glyph glyph-name="plusminus" unicode="&#xb1;" horiz-adv-x="1706" 
d="M254 182h1198v-168h-1198v168zM768 1206h170v-334h514v-165h-514v-334h-170v334h-514v165h514v334z" />
    <glyph glyph-name="lessequal" unicode="&#x2264;" horiz-adv-x="1706" 
d="M260 178h1186v-166h-1186v166zM1446 1223v-176l-889 -287l889 -287v-176l-1186 389v145z" />
    <glyph glyph-name="greaterequal" unicode="&#x2265;" horiz-adv-x="1706" 
d="M260 178h1188v-166h-1188v166zM260 1223l1186 -392v-145l-1186 -389v176l891 287l-891 287v176z" />
    <glyph glyph-name="yen" unicode="&#xa5;" horiz-adv-x="1192" 
d="M817 965q14 20 22.5 36.5t8.5 24.5q0 10 -8 16.5t-21 6.5q-2 0 -6 -1t-6 -1v28h383v-28q-37 -26 -65 -68q-2 -3 -3 -4l-166 -234h187v-104h-258l-111 -156h369v-104h-381v-289q0 -28 10 -39.5t43 -19.5v-29h-399v29q33 8 43 19.5t10 39.5v289h-422v104h377l-107 156h-270
v104h197l-152 220q-1 1 -3 4q-48 72 -89 82v28h449v-28h-9q-16 -1 -24 -6.5t-8 -16.5q0 -6 5 -16.5t23 -38.5l189 -275z" />
    <glyph glyph-name="mu" unicode="&#xb5;" horiz-adv-x="1208" 
d="M205 1081h229l-125 -635q-6 -29 -9 -55t-3 -49q0 -96 46.5 -146.5t135.5 -50.5q122 0 193.5 88.5t111.5 292.5l109 555h225l-145 -739q-10 -49 -14.5 -81.5t-4.5 -51.5q0 -36 15.5 -51t52.5 -15q13 0 20.5 0.5t13.5 1.5l-32 -159q-32 -9 -68.5 -13t-81.5 -4
q-74 0 -111.5 31.5t-37.5 93.5v15q-41 -67 -108 -104.5t-146 -37.5q-81 0 -137.5 26t-97.5 83l-99 -506h-229z" />
    <glyph glyph-name="partialdiff" unicode="&#x2202;" horiz-adv-x="1075" 
d="M758 639q17 103 26 186.5t9 147.5q0 120 -29 174.5t-92 54.5q-62 0 -147 -58.5t-122 -58.5t-64.5 26t-27.5 60q0 66 79 115t200 49q176 0 287.5 -159t111.5 -422q0 -338 -150 -558.5t-376 -220.5q-161 0 -266 112t-105 286q0 193 113 322.5t278 129.5q101 0 167.5 -45
t107.5 -141zM705 504q0 116 -41 178.5t-117 62.5q-105 0 -174.5 -131.5t-69.5 -337.5q0 -116 40.5 -177.5t117.5 -61.5q105 0 174.5 132.5t69.5 334.5z" />
    <glyph glyph-name="summation" unicode="&#x2211;" horiz-adv-x="1421" 
d="M61 1473h1280v-226h-921l647 -684l-661 -729h974v-227h-1347v160l712 786l-684 719v201z" />
    <glyph glyph-name="product" unicode="&#x220f;" horiz-adv-x="1579" 
d="M154 1473h1267v-1866h-286v1622h-695v-1622h-286v1866z" />
    <glyph glyph-name="pi" unicode="&#x3c0;" horiz-adv-x="1368" 
d="M360 889h-45q-54 0 -83.5 -31.5t-39.5 -99.5h-174q28 187 100 255t242 68h953l-39 -192h-193l-84 -437q-2 -13 -8 -41q-22 -113 -22 -147q0 -58 23 -82t77 -24q18 0 42.5 2.5t59.5 7.5l-34 -168q-29 -8 -61 -12t-75 -4q-139 0 -202.5 48t-63.5 154q0 77 52 344l1 6
l70 353h-268l-174 -889h-226z" />
    <glyph glyph-name="integral" unicode="&#x222b;" horiz-adv-x="1120" 
d="M324 -258q106 0 122 692q2 81 3 123q13 538 113 766.5t312 228.5q87 0 143 -45.5t56 -111.5q0 -61 -34 -95t-95 -34q-45 0 -74.5 22.5t-40.5 65.5q-4 17 -6 45q-3 40 -26 41q-101 0 -119 -615q-5 -161 -8 -249q-10 -280 -30.5 -427t-59.5 -245q-55 -136 -139.5 -205.5
t-194.5 -69.5q-87 0 -142 44t-55 112q0 63 35.5 97t99.5 34q39 0 66 -18t41 -54q6 -16 9 -59t24 -43z" />
    <glyph glyph-name="ordfeminine" unicode="&#xaa;" horiz-adv-x="780" 
d="M283 629h190l-98 221zM541 958v-18q-12 0 -16.5 -3.5t-4.5 -12.5q0 -8 2.5 -18.5t8.5 -23.5l182 -401q6 -17 12.5 -23.5t19.5 -12.5v-17h-231v16q13 3 20 9.5t7 17.5q0 3 -2 10.5t-4 13.5l-21 46h-268l-19 -45q0 -3 -3 -10.5t-3 -10.5q0 -11 6.5 -18t22.5 -13v-16h-215
v16q29 14 60 83q2 5 3 7l142 349q8 21 10 27t2 10q-1 12 -5 16t-14 4v18h308z" />
    <glyph glyph-name="ordmasculine" unicode="&#xba;" horiz-adv-x="801" 
d="M399 971q152 0 249 -78.5t97 -198.5q0 -118 -97.5 -197t-248.5 -79q-149 0 -246.5 79t-97.5 197q0 119 97.5 198t246.5 79zM238 694q0 -62 45 -102.5t116 -40.5q73 0 118.5 40.5t45.5 102.5q0 64 -45 104t-119 40q-71 0 -116 -40.5t-45 -103.5z" />
    <glyph glyph-name="Omega" unicode="&#x3a9;" horiz-adv-x="1569" 
d="M1194 213h305v-213h-602v229q160 94 242 244.5t82 351.5q0 210 -121 341.5t-316 131.5q-197 0 -316.5 -132.5t-119.5 -352.5q0 -191 84 -342t240 -242v-229h-602v213h305q-144 130 -211.5 274t-67.5 322q0 314 190.5 508t497.5 194q303 0 496 -192.5t193 -493.5
q0 -190 -65.5 -333t-213.5 -279z" />
    <glyph glyph-name="ae" unicode="&#xe6;" horiz-adv-x="1823" 
d="M524 383h279v281h-115zM1561 883q30 0 42 10t20 41h28v-322h-29q-8 31 -20 41.5t-41 10.5h-492v-125h285q29 0 40.5 9.5t18.5 41.5h29v-295h-29q-8 33 -19.5 43t-39.5 10h-285v-129h492q30 0 41.5 10t19.5 41h29v-321h-29q-7 30 -19 40.5t-42 10.5h-811v29q33 8 43 19.5
t10 39.5v105h-393l-48 -80q-6 -10 -10 -24t-4 -23q0 -13 10.5 -22t30.5 -15v-29h-373v29q34 14 60.5 42t70.5 105l349 582q10 18 16 34t6 27q0 15 -8.5 24t-26.5 12v28h1078z" />
    <glyph glyph-name="oslash" unicode="&#xf8;" horiz-adv-x="1214" 
d="M438 258l293 399q-30 14 -60 20.5t-63 6.5q-112 0 -181 -67t-69 -173q0 -55 20.5 -102.5t59.5 -83.5zM521 216q11 -3 30 -6q46 -7 61 -7q104 0 173 69t69 172q0 41 -12.5 78t-40.5 78zM287 70q-98 68 -150.5 165t-52.5 207q0 200 148 330.5t380 130.5q67 0 127 -13
t121 -40l129 174l98 -55l-129 -176q84 -70 127 -159.5t43 -191.5q0 -199 -147 -329.5t-377 -130.5q-54 0 -106 9t-107 27l-145 -200l-101 61z" />
    <glyph glyph-name="questiondown" unicode="&#xbf;" horiz-adv-x="1014" 
d="M606 680v-25q-15 0 -30 -10.5t-33 -36.5q-73 -99 -115.5 -181t-42.5 -122t23 -62t65 -22q46 0 84.5 28.5t38.5 61.5q0 4 -1.5 10.5t-4.5 16.5l24 12l220 -223l-13 -18l-24 7.5t-15 2.5q-12 0 -127 -69.5t-245 -69.5q-129 0 -220.5 78t-91.5 186q0 96 102 228q8 11 13 17
q37 46 56.5 80t19.5 52q0 13 -10.5 21t-32.5 12v26h360zM575 944q0 -61 -43 -104t-104 -43t-105 43.5t-44 103.5q0 61 43.5 104.5t105.5 43.5q63 0 105 -42.5t42 -105.5z" />
    <glyph glyph-name="exclamdown" unicode="&#xa1;" horiz-adv-x="721" 
d="M287 578q0 2 1 6.5t1 7.5q0 24 -14.5 40.5t-36.5 16.5h-2v25h251v-25h-2q-22 0 -35.5 -16t-13.5 -41q0 -2 1 -7t1 -7l78 -492q0 -1 1 -4q9 -53 52 -57v-25h-413v24q39 6 48 55q0 4 1 7zM510 946q0 -61 -43 -104t-105 -43q-60 0 -103.5 43.5t-43.5 103.5q0 62 43 105
t104 43q63 0 105.5 -42.5t42.5 -105.5z" />
    <glyph glyph-name="logicalnot" unicode="&#xac;" horiz-adv-x="1706" 
d="M254 862h1198v-502h-166v336h-1032v166z" />
    <glyph glyph-name="radical" unicode="&#x221a;" horiz-adv-x="1323" 
d="M1128 1675h197v-110h-108l-594 -1606h-82l-316 872l-131 -49l-28 95l305 108l247 -688z" />
    <glyph glyph-name="florin" unicode="&#x192;" horiz-adv-x="1305" 
d="M481 512h-258v154h291q34 233 121.5 331.5t259.5 98.5q64 0 143 -23.5t101 -23.5q15 0 28.5 8t29.5 26l28 -8l-86 -307l-27 8v6q0 51 -40 82t-105 31q-66 0 -102 -48.5t-60 -180.5h258v-154h-291l-102 -459q-58 -261 -140.5 -345.5t-240.5 -84.5q-63 0 -142.5 22.5
t-101.5 22.5q-16 0 -29.5 -7.5t-27.5 -25.5l-27 7l84 307l29 -6v-4q0 -54 40.5 -84.5t112.5 -30.5q57 0 90 44t64 185z" />
    <glyph glyph-name="approxequal" unicode="&#x2248;" horiz-adv-x="1706" 
d="M1530 592v-186q-107 -73 -200 -106.5t-189 -33.5q-89 0 -279.5 66.5t-298.5 66.5q-84 0 -173.5 -36t-211.5 -121v184q112 75 206.5 110t180.5 35q118 0 309 -67.5t277 -67.5q83 0 172 36.5t207 119.5zM1530 979v-184q-109 -75 -201.5 -108.5t-187.5 -33.5
q-88 0 -278.5 67.5t-299.5 67.5q-82 0 -170 -35t-215 -122v184q109 73 205 109.5t182 36.5q120 0 310 -68t268 -68q92 0 181 35t206 119z" />
    <glyph glyph-name="Delta" unicode="&#x2206;" horiz-adv-x="1395" 
d="M698 1196l-379 -983h756zM569 1473h256l574 -1473h-1403z" />
    <glyph glyph-name="guillemotleft" unicode="&#xab;" horiz-adv-x="1077" 
d="M952 217h-198l-228 320l228 319h198l-227 -319zM551 217h-199l-225 320l225 319h199l-225 -319z" />
    <glyph glyph-name="guillemotright" unicode="&#xbb;" horiz-adv-x="1077" 
d="M127 217l225 320l-225 319h199l225 -319l-225 -320h-199zM526 217l226 320l-226 319h199l227 -319l-227 -320h-199z" />
    <glyph glyph-name="ellipsis" unicode="&#x2026;" horiz-adv-x="2048" 
d="M182 139q0 66 47 113t113 47q65 0 111 -47t46 -113t-45.5 -111.5t-111.5 -45.5q-68 0 -114 45t-46 112zM864 139q0 66 47 113t113 47q65 0 111 -47t46 -113t-45.5 -111.5t-111.5 -45.5q-68 0 -114 45t-46 112zM1548 139q0 66 47 113t113 47q65 0 111 -47t46 -113
t-45.5 -111.5t-111.5 -45.5q-68 0 -114 45t-46 112z" />
    <glyph glyph-name="nonbreakingspace" unicode="&#xa0;" horiz-adv-x="1305" 
 />
    <glyph glyph-name="Agrave" unicode="&#xc0;" horiz-adv-x="1348" 
d="M471 408h360l-186 473zM922 0v29q20 5 29.5 13.5t9.5 23.5q0 7 -3 17.5t-10 29.5l-43 116h-499l-44 -116q-4 -10 -6 -18.5t-2 -16.5q0 -19 10.5 -31t32.5 -18v-29h-366v29q54 28 90 131q4 11 6 16l283 774q8 23 13 40t5 24q0 16 -7 23.5t-24 9.5v28h535v-28
q-17 -2 -24 -9.5t-7 -23.5q0 -6 5.5 -24t13.5 -40l342 -862q0 -1 1 -3q17 -43 52 -56v-29h-393zM869 1205h-91l-313 164q-56 30 -75 53t-19 55q0 40 25 65t65 25q30 0 61.5 -19t73.5 -63z" />
    <glyph glyph-name="Atilde" unicode="&#xc3;" horiz-adv-x="1348" 
d="M471 408h360l-186 473zM922 0v29q20 5 29.5 13.5t9.5 23.5q0 7 -3 17.5t-10 29.5l-43 116h-499l-44 -116q-4 -10 -6 -18.5t-2 -16.5q0 -19 10.5 -31t32.5 -18v-29h-366v29q54 28 90 131q4 11 6 16l283 774q8 23 13 40t5 24q0 16 -7 23.5t-24 9.5v28h535v-28
q-17 -2 -24 -9.5t-7 -23.5q0 -6 5.5 -24t13.5 -40l342 -862q0 -1 1 -3q17 -43 52 -56v-29h-393zM963 1526q-17 -123 -70 -184.5t-143 -61.5q-13 1 -25.5 2.5t-24.5 4.5l-104 26q-23 6 -35.5 8t-21.5 2q-32 0 -53.5 -20.5t-36.5 -67.5h-66q17 124 69.5 185t141.5 61
q17 0 32.5 -2t31.5 -6l108 -27q2 0 5 -1q23 -7 34 -7q32 0 54 21t38 67h66z" />
    <glyph glyph-name="Otilde" unicode="&#xd5;" horiz-adv-x="1456" 
d="M727 -18q-275 0 -454 159t-179 398q0 240 178 397.5t455 157.5t455 -157.5t178 -397.5q0 -239 -179 -398t-454 -159zM408 537q0 -139 87 -222.5t234 -83.5q144 0 231 84t87 222q0 137 -88 222t-232 85q-143 0 -231 -85t-88 -222zM1018 1526q-17 -123 -70 -184.5
t-143 -61.5q-13 1 -25.5 2.5t-24.5 4.5l-104 26q-23 6 -35.5 8t-21.5 2q-32 0 -53.5 -20.5t-36.5 -67.5h-66q17 124 69.5 185t141.5 61q17 0 32.5 -2t31.5 -6l108 -27q2 0 5 -1q23 -7 34 -7q32 0 54 21t38 67h66z" />
    <glyph glyph-name="OE" unicode="&#x152;" horiz-adv-x="2152" 
d="M408 537q0 -139 87 -222.5t234 -83.5q144 0 231 84t87 222q0 137 -88 222t-232 85q-143 0 -231 -85t-88 -222zM1081 993v82h863q28 0 39.5 10.5t17.5 42.5h29v-358h-29q-7 32 -18.5 41.5t-38.5 9.5h-617v-151h371q29 0 40.5 9.5t18.5 41.5h29v-336h-29q-8 33 -19.5 43
t-39.5 10h-371v-184h615q28 0 39.5 9.5t19.5 41.5h29v-356h-29q-8 32 -19 41.5t-40 9.5h-861v84q-83 -52 -169.5 -77t-184.5 -25q-275 0 -454 159t-179 398q0 240 178 397.5t455 157.5q97 0 185 -25t169 -76z" />
    <glyph glyph-name="oe" unicode="&#x153;" horiz-adv-x="1788" 
d="M903 811v72h690q30 0 41 9.5t19 41.5h28v-322h-28q-8 32 -19.5 42t-40.5 10h-493v-125h284q30 0 41 9.5t19 41.5h29v-295h-29q-8 33 -19.5 43t-40.5 10h-284v-129h493q30 0 41 10t19 41h28v-321h-28q-8 32 -19 41.5t-41 9.5h-690v76q-72 -49 -147 -72.5t-158 -23.5
q-219 0 -366.5 133.5t-147.5 328.5q0 196 146 328.5t366 132.5q85 0 160.5 -22.5t146.5 -69.5zM358 444q0 -105 69 -172t179 -67t179 67t69 172t-69 172.5t-179 67.5q-109 0 -178.5 -67t-69.5 -173z" />
    <glyph glyph-name="endash" unicode="&#x2013;" 
d="M0 434v203h1024v-203h-1024z" />
    <glyph glyph-name="emdash" unicode="&#x2014;" horiz-adv-x="2048" 
d="M0 434v203h2048v-203h-2048z" />
    <glyph glyph-name="quotedblleft" unicode="&#x201c;" horiz-adv-x="1110" 
d="M500 1028q-98 -40 -146.5 -78.5t-48.5 -77.5q0 -30 49 -37q17 -2 24 -3q49 -11 79 -49.5t30 -90.5q0 -64 -47.5 -107.5t-117.5 -43.5q-79 0 -127 53t-48 139q0 118 93 213.5t260 147.5v-66zM961 1028q-100 -40 -148.5 -78.5t-48.5 -77.5q0 -30 49 -37q17 -2 24 -3
q49 -11 79 -49.5t30 -90.5q0 -64 -47.5 -107.5t-118.5 -43.5q-78 0 -126 53t-48 139q0 117 93.5 212.5t261.5 148.5v-66z" />
    <glyph glyph-name="quotedblright" unicode="&#x201d;" horiz-adv-x="1110" 
d="M610 604q98 40 146.5 78.5t48.5 77.5q0 31 -52 39q-14 2 -22 4q-48 10 -78 49t-30 90q0 64 47.5 108t117.5 44q78 0 126.5 -54t48.5 -141q0 -117 -93 -211.5t-260 -146.5v63zM152 604q97 40 145.5 78.5t48.5 77.5q0 31 -52 39q-14 2 -22 4q-48 10 -78 49t-30 90
q0 64 47.5 108t118.5 44q77 0 125.5 -54t48.5 -141q0 -117 -92.5 -211.5t-259.5 -146.5v63z" />
    <glyph glyph-name="quoteleft" unicode="&#x2018;" horiz-adv-x="627" 
d="M487 1028q-99 -40 -147.5 -78.5t-48.5 -77.5q0 -30 51 -37q17 -2 24 -3q49 -11 79 -49.5t30 -90.5q0 -64 -47.5 -107.5t-118.5 -43.5q-78 0 -126 53t-48 139q0 118 93 213.5t259 147.5v-66z" />
    <glyph glyph-name="quoteright" unicode="&#x2019;" horiz-adv-x="627" 
d="M137 604q99 40 148 79t49 77q0 31 -53 39q-15 2 -23 4q-48 10 -77 48.5t-29 90.5q0 64 47.5 108t117.5 44q78 0 126.5 -54t48.5 -141q0 -117 -93.5 -211.5t-261.5 -146.5v63z" />
    <glyph glyph-name="divide" unicode="&#xf7;" horiz-adv-x="1706" 
d="M854 367q57 0 97 -40.5t40 -97.5q0 -56 -39.5 -95.5t-97.5 -39.5t-97.5 39t-39.5 96t40.5 97.5t96.5 40.5zM254 694h1198v-166h-1198v166zM854 1128q57 0 97 -41t40 -98q0 -56 -39.5 -95.5t-97.5 -39.5t-97.5 39t-39.5 96t40.5 98t96.5 41z" />
    <glyph glyph-name="lozenge" unicode="&#x25ca;" horiz-adv-x="1012" 
d="M506 1409l-385 -817l385 -825l385 825zM506 1653l500 -1061l-500 -1069l-500 1069z" />
    <glyph glyph-name="ydieresis" unicode="&#xff;" horiz-adv-x="1012" 
d="M668 774q15 21 22.5 36.5t7.5 23.5t-9.5 14t-24.5 6h-11v29h348v-29q-30 -21 -58 -60q-6 -10 -9 -14l-287 -393v-299q0 -28 10 -39.5t43 -19.5v-29h-370v29q33 8 43 19.5t10 39.5v270l-295 410q-28 40 -49 59.5t-43 26.5v29h416v-29h-11q-14 0 -22 -6.5t-8 -18.5
q0 -9 6.5 -24.5t17.5 -30.5l135 -190zM567 1176q0 47 36 82.5t85 35.5t84 -34.5t35 -83.5q0 -54 -33.5 -88.5t-85.5 -34.5q-50 0 -85.5 36t-35.5 87zM203 1176q0 47 36 82.5t85 35.5t84 -34.5t35 -83.5q0 -54 -33.5 -88.5t-85.5 -34.5q-51 0 -86 36t-35 87z" />
    <glyph glyph-name="Ydieresis" unicode="&#x178;" horiz-adv-x="1192" 
d="M817 965q14 20 22.5 36.5t8.5 24.5q0 10 -8 16.5t-21 6.5q-2 0 -6 -1t-6 -1v28h387v-28q-31 -22 -59 -61l-9 -12l-358 -511v-375q0 -30 9.5 -41t41.5 -18v-29h-407v29q31 7 41 18t10 41v334l-375 539q-3 4 -10 14q-44 62 -82 72v28h453v-28h-9q-16 -1 -24 -6.5t-8 -16.5
q0 -6 5 -16.5t23 -38.5l189 -275zM657 1369q0 47 36 82.5t85 35.5t84 -34.5t35 -83.5q0 -54 -33.5 -88.5t-85.5 -34.5q-50 0 -85.5 36t-35.5 87zM293 1369q0 47 36 82.5t85 35.5t84 -34.5t35 -83.5q0 -54 -33.5 -88.5t-85.5 -34.5q-51 0 -86 36t-35 87z" />
    <glyph glyph-name="fraction" unicode="&#x2215;" horiz-adv-x="342" 
d="M-352 -18l882 1112h162l-885 -1112h-159z" />
    <glyph glyph-name="currency" unicode="&#xa4;" horiz-adv-x="1241" 
d="M623 1176q-120 0 -205.5 -86t-85.5 -205q0 -120 84.5 -204.5t206.5 -84.5q121 0 205.5 84.5t84.5 204.5q0 119 -85.5 205t-204.5 86zM168 1430l203 -203q55 41 117 61.5t133 20.5t134 -20.5t117 -61.5l203 203l94 -93l-204 -204q39 -54 59 -116.5t20 -131.5
q0 -70 -20 -132.5t-59 -115.5l204 -205l-94 -92l-203 205q-57 -42 -118 -62t-131 -20q-72 0 -135 20.5t-117 61.5l-203 -205l-92 92l203 205q-40 53 -60 115.5t-20 132.5q0 69 20 131.5t60 116.5l-203 204z" />
    <glyph glyph-name="guilsinglleft" unicode="&#x2039;" horiz-adv-x="678" 
d="M551 217h-199l-225 320l225 319h199l-225 -319z" />
    <glyph glyph-name="guilsinglright" unicode="&#x203a;" horiz-adv-x="678" 
d="M127 217l225 320l-225 319h199l225 -319l-225 -320h-199z" />
    <glyph glyph-name="fi" unicode="&#xf001;" horiz-adv-x="1815" 
d="M457 664v-125h284q30 0 41 9t21 42h28v-295h-28q-10 33 -21.5 43t-40.5 10h-282v-260q0 -28 10 -39.5t43 -19.5v-29h-373v29q33 8 43.5 19.5t10.5 39.5v705q0 29 -11 41t-43 20v29h811q30 0 41 9.5t19 41.5h28v-322h-28q-8 32 -19.5 42t-40.5 10h-493zM1620 88
q0 -28 10 -39.5t43 -19.5v-29h-371v29q32 7 42 18t10 41v705q0 30 -10 41.5t-42 20.5v28h371v-29q-32 -8 -42.5 -20t-10.5 -41v-705z" />
    <glyph glyph-name="fl" unicode="&#xf002;" horiz-adv-x="2353" 
d="M457 664v-125h284q30 0 41 9t21 42h28v-295h-28q-10 33 -21.5 43t-40.5 10h-282v-260q0 -28 10 -39.5t43 -19.5v-29h-373v29q33 8 43.5 19.5t10.5 39.5v705q0 29 -11 41t-43 20v29h811q30 0 41 9.5t19 41.5h28v-322h-28q-8 32 -19.5 42t-40.5 10h-493zM1673 883v-29
q-32 -8 -42.5 -20t-10.5 -41v-574h491q30 0 41 10t19 41h28v-321h-28q-8 32 -19 41.5t-41 9.5h-811v29q33 8 43.5 19.5t10.5 39.5v705q0 29 -11 41t-43 20v29h373z" />
    <glyph glyph-name="daggerdbl" unicode="&#x2021;" 
d="M399 991q0 2 -1 6q-12 44 -48 56v22h320v-22q-37 -11 -46 -49l-3 -12l-60 -216l192 55q13 4 32 8q57 13 67 54h25v-324h-25q-10 43 -70 56q-21 5 -33 8l-188 53l72 -258l-72 -256l192 49q11 3 28 7q61 16 71 61h25v-324h-25q-10 38 -66 52q-22 5 -37 10l-188 55l60 -219
q0 -2 1 -5q11 -43 48 -55v-24h-320v24q37 11 47 51q1 5 2 9l64 219l-195 -55q-11 -4 -33 -10q-55 -15 -63 -52h-25v324h25q10 -45 69 -58l32 -8l190 -51l-72 256l72 258l-194 -53q-11 -3 -31 -8q-56 -13 -66 -56h-25v324h25q10 -42 70 -56q20 -5 31 -8l190 -53z" />
    <glyph glyph-name="periodcentered" unicode="&#xb7;" horiz-adv-x="651" 
d="M166 537q0 66 47 112.5t113 46.5q65 0 111 -47t46 -112q0 -66 -45.5 -112t-111.5 -46q-68 0 -114 45t-46 113z" />
    <glyph glyph-name="quotesinglbase" unicode="&#x201a;" horiz-adv-x="627" 
d="M137 -190q99 40 148 78.5t49 76.5q0 30 -50 37q-17 2 -26 4q-48 11 -77 49.5t-29 89.5q0 65 47.5 108.5t117.5 43.5q78 0 126.5 -53t48.5 -140q0 -117 -93 -211t-262 -147v64z" />
    <glyph glyph-name="quotedblbase" unicode="&#x201e;" horiz-adv-x="1110" 
d="M610 -190q98 39 146.5 78t48.5 77q0 31 -49 37q-16 2 -25 4q-48 11 -78 49.5t-30 89.5q0 65 47.5 108.5t117.5 43.5q79 0 127 -53t48 -140q0 -117 -93 -211.5t-260 -146.5v64zM152 -190q97 39 145.5 78t48.5 77q0 31 -49 37q-16 2 -24 4q-49 11 -79 49.5t-30 89.5
q0 65 47.5 108.5t118.5 43.5q78 0 126 -53t48 -140q0 -117 -92.5 -211.5t-259.5 -146.5v64z" />
    <glyph glyph-name="perthousand" unicode="&#x2030;" horiz-adv-x="2548" 
d="M1985 311q0 -80 41 -128t108 -48q66 0 106.5 48.5t40.5 127.5q0 80 -40 127t-107 47q-68 0 -108.5 -47t-40.5 -127zM1792 307q0 150 92.5 240t247.5 90q154 0 248 -91t94 -239q0 -147 -93.5 -236t-248.5 -89t-247.5 88.5t-92.5 236.5zM1202 311q0 -80 41 -128t109 -48
q66 0 106.5 48.5t40.5 127.5q0 80 -40 127t-107 47q-68 0 -109 -47t-41 -127zM1010 307q0 149 93.5 239.5t248.5 90.5q154 0 247 -90.5t93 -239.5q0 -148 -93 -236.5t-247 -88.5q-156 0 -249 88.5t-93 236.5zM266 768q0 -80 41 -128t109 -48q66 0 106.5 48t40.5 128t-40 127
t-107 47q-68 0 -109 -47.5t-41 -126.5zM74 766q0 149 92.5 238.5t247.5 89.5q154 0 248 -90t94 -238t-94 -238t-248 -90q-155 0 -247.5 89.5t-92.5 238.5zM360 -18l883 1112h162l-885 -1112h-160z" />
    <glyph glyph-name="Acircumflex" unicode="&#xc2;" horiz-adv-x="1348" 
d="M471 408h360l-186 473zM922 0v29q20 5 29.5 13.5t9.5 23.5q0 7 -3 17.5t-10 29.5l-43 116h-499l-44 -116q-4 -10 -6 -18.5t-2 -16.5q0 -19 10.5 -31t32.5 -18v-29h-366v29q54 28 90 131q4 11 6 16l283 774q8 23 13 40t5 24q0 16 -7 23.5t-24 9.5v28h535v-28
q-17 -2 -24 -9.5t-7 -23.5q0 -6 5.5 -24t13.5 -40l342 -862q0 -1 1 -3q17 -43 52 -56v-29h-393zM375 1205l225 348h148l225 -348h-84l-215 178l-215 -178h-84z" />
    <glyph glyph-name="Ecircumflex" unicode="&#xca;" horiz-adv-x="1407" 
d="M1133 254q28 0 39.5 9.5t19.5 41.5h29v-356h-29q-8 32 -19 41.5t-40 9.5h-971v29q32 7 41.5 18t9.5 41v899q0 30 -9.5 41t-41.5 19v28h973q28 0 39.5 10.5t17.5 42.5h29v-358h-29q-7 32 -18.5 41.5t-38.5 9.5h-619v-151h371q29 0 40.5 9.5t21.5 41.5h28v-334h-29
q-9 32 -21 41.5t-40 9.5h-371v-184h617zM455 1205l225 348h148l225 -348h-84l-215 178l-215 -178h-84z" />
    <glyph glyph-name="Aacute" unicode="&#xc1;" horiz-adv-x="1348" 
d="M471 408h360l-186 473zM922 0v29q20 5 29.5 13.5t9.5 23.5q0 7 -3 17.5t-10 29.5l-43 116h-499l-44 -116q-4 -10 -6 -18.5t-2 -16.5q0 -19 10.5 -31t32.5 -18v-29h-366v29q54 28 90 131q4 11 6 16l283 774q8 23 13 40t5 24q0 16 -7 23.5t-24 9.5v28h535v-28
q-17 -2 -24 -9.5t-7 -23.5q0 -6 5.5 -24t13.5 -40l342 -862q0 -1 1 -3q17 -43 52 -56v-29h-393zM479 1205l273 280q42 44 73.5 63t61.5 19q40 0 65 -25t25 -65q0 -32 -19 -55t-75 -53l-313 -164h-91z" />
    <glyph glyph-name="Edieresis" unicode="&#xcb;" horiz-adv-x="1407" 
d="M1133 254q28 0 39.5 9.5t19.5 41.5h29v-356h-29q-8 32 -19 41.5t-40 9.5h-971v29q32 7 41.5 18t9.5 41v899q0 30 -9.5 41t-41.5 19v28h973q28 0 39.5 10.5t17.5 42.5h29v-358h-29q-7 32 -18.5 41.5t-38.5 9.5h-619v-151h371q29 0 40.5 9.5t21.5 41.5h28v-334h-29
q-9 32 -21 41.5t-40 9.5h-371v-184h617zM815 1369q0 47 36 82.5t85 35.5t84 -34.5t35 -83.5q0 -54 -33.5 -88.5t-85.5 -34.5q-50 0 -85.5 36t-35.5 87zM451 1369q0 47 36 82.5t85 35.5t84 -34.5t35 -83.5q0 -54 -33.5 -88.5t-85.5 -34.5q-51 0 -86 36t-35 87z" />
    <glyph glyph-name="Egrave" unicode="&#xc8;" horiz-adv-x="1407" 
d="M1133 254q28 0 39.5 9.5t19.5 41.5h29v-356h-29q-8 32 -19 41.5t-40 9.5h-971v29q32 7 41.5 18t9.5 41v899q0 30 -9.5 41t-41.5 19v28h973q28 0 39.5 10.5t17.5 42.5h29v-358h-29q-7 32 -18.5 41.5t-38.5 9.5h-619v-151h371q29 0 40.5 9.5t21.5 41.5h28v-334h-29
q-9 32 -21 41.5t-40 9.5h-371v-184h617zM949 1205h-91l-313 164q-56 30 -75 53t-19 55q0 40 25 65t65 25q30 0 61.5 -19t73.5 -63z" />
    <glyph glyph-name="Iacute" unicode="&#xcd;" horiz-adv-x="723" 
d="M158 0v29q32 7 41.5 18t9.5 41v899q0 30 -9.5 41t-41.5 19v28h407v-28q-33 -8 -43 -19.5t-10 -40.5v-899q0 -28 10 -39.5t43 -19.5v-29h-407zM167 1205l273 280q42 44 73.5 63t61.5 19q40 0 65 -25t25 -65q0 -32 -19 -55t-75 -53l-313 -164h-91z" />
    <glyph glyph-name="Icircumflex" unicode="&#xce;" horiz-adv-x="723" 
d="M158 0v29q32 7 41.5 18t9.5 41v899q0 30 -9.5 41t-41.5 19v28h407v-28q-33 -8 -43 -19.5t-10 -40.5v-899q0 -28 10 -39.5t43 -19.5v-29h-407zM63 1205l225 348h148l225 -348h-84l-215 178l-215 -178h-84z" />
    <glyph glyph-name="Idieresis" unicode="&#xcf;" horiz-adv-x="723" 
d="M158 0v29q32 7 41.5 18t9.5 41v899q0 30 -9.5 41t-41.5 19v28h407v-28q-33 -8 -43 -19.5t-10 -40.5v-899q0 -28 10 -39.5t43 -19.5v-29h-407zM423 1369q0 47 36 82.5t85 35.5t84 -34.5t35 -83.5q0 -54 -33.5 -88.5t-85.5 -34.5q-50 0 -85.5 36t-35.5 87zM59 1369
q0 47 36 82.5t85 35.5t84 -34.5t35 -83.5q0 -54 -33.5 -88.5t-85.5 -34.5q-51 0 -86 36t-35 87z" />
    <glyph glyph-name="Igrave" unicode="&#xcc;" horiz-adv-x="723" 
d="M158 0v29q32 7 41.5 18t9.5 41v899q0 30 -9.5 41t-41.5 19v28h407v-28q-33 -8 -43 -19.5t-10 -40.5v-899q0 -28 10 -39.5t43 -19.5v-29h-407zM557 1205h-91l-313 164q-56 30 -75 53t-19 55q0 40 25 65t65 25q30 0 61.5 -19t73.5 -63z" />
    <glyph glyph-name="Oacute" unicode="&#xd3;" horiz-adv-x="1456" 
d="M727 -18q-275 0 -454 159t-179 398q0 240 178 397.5t455 157.5t455 -157.5t178 -397.5q0 -239 -179 -398t-454 -159zM408 537q0 -139 87 -222.5t234 -83.5q144 0 231 84t87 222q0 137 -88 222t-232 85q-143 0 -231 -85t-88 -222zM534 1205l273 280q42 44 73.5 63t61.5 19
q40 0 65 -25t25 -65q0 -32 -19 -55t-75 -53l-313 -164h-91z" />
    <glyph glyph-name="Ocircumflex" unicode="&#xd4;" horiz-adv-x="1456" 
d="M727 -18q-275 0 -454 159t-179 398q0 240 178 397.5t455 157.5t455 -157.5t178 -397.5q0 -239 -179 -398t-454 -159zM408 537q0 -139 87 -222.5t234 -83.5q144 0 231 84t87 222q0 137 -88 222t-232 85q-143 0 -231 -85t-88 -222zM430 1205l225 348h148l225 -348h-84
l-215 178l-215 -178h-84z" />
    <glyph glyph-name="apple" unicode="&#xf000;" horiz-adv-x="1618" 
d="M836 1216q-1 6 -1.5 14t-0.5 23q0 124 95 229.5t236 131.5q1 -10 1.5 -23t0.5 -39q0 -131 -103.5 -234.5t-203.5 -103.5h-8q-3 0 -7.5 1t-8.5 1zM1505 403q-114 -247 -205 -342.5t-204 -95.5q-50 0 -131.5 33t-122.5 33q-45 0 -131 -33t-127 -33q-64 0 -128.5 44
t-129.5 132q-102 140 -157.5 295.5t-55.5 300.5q0 219 125 356.5t323 137.5q68 0 155 -34t124 -34q34 0 121.5 35t152.5 35q110 0 198 -40t161 -124q-102 -65 -151.5 -145.5t-49.5 -182.5q0 -113 60 -200t173 -138z" />
    <glyph glyph-name="Ograve" unicode="&#xd2;" horiz-adv-x="1456" 
d="M727 -18q-275 0 -454 159t-179 398q0 240 178 397.5t455 157.5t455 -157.5t178 -397.5q0 -239 -179 -398t-454 -159zM408 537q0 -139 87 -222.5t234 -83.5q144 0 231 84t87 222q0 137 -88 222t-232 85q-143 0 -231 -85t-88 -222zM924 1205h-91l-313 164q-56 30 -75 53
t-19 55q0 40 25 65t65 25q30 0 61.5 -19t73.5 -63z" />
    <glyph glyph-name="Uacute" unicode="&#xda;" horiz-adv-x="1540" 
d="M1020 987q0 31 -10.5 43t-42.5 19v26h411v-26q-32 -8 -42.5 -20t-10.5 -42v-538q0 -232 -141 -349.5t-418 -117.5q-279 0 -416 119.5t-137 363.5v522q0 31 -10.5 43t-42.5 19v26h407v-26q-31 -6 -41 -18t-10 -44v-469q0 -146 57 -204t195 -58q136 0 194 57.5t58 200.5
v473zM575 1205l273 280q42 44 73.5 63t61.5 19q40 0 65 -25t25 -65q0 -32 -19 -55t-75 -53l-313 -164h-91z" />
    <glyph glyph-name="Ucircumflex" unicode="&#xdb;" horiz-adv-x="1540" 
d="M1020 987q0 31 -10.5 43t-42.5 19v26h411v-26q-32 -8 -42.5 -20t-10.5 -42v-538q0 -232 -141 -349.5t-418 -117.5q-279 0 -416 119.5t-137 363.5v522q0 31 -10.5 43t-42.5 19v26h407v-26q-31 -6 -41 -18t-10 -44v-469q0 -146 57 -204t195 -58q136 0 194 57.5t58 200.5
v473zM471 1205l225 348h148l225 -348h-84l-215 178l-215 -178h-84z" />
    <glyph glyph-name="Ugrave" unicode="&#xd9;" horiz-adv-x="1540" 
d="M1020 987q0 31 -10.5 43t-42.5 19v26h411v-26q-32 -8 -42.5 -20t-10.5 -42v-538q0 -232 -141 -349.5t-418 -117.5q-279 0 -416 119.5t-137 363.5v522q0 31 -10.5 43t-42.5 19v26h407v-26q-31 -6 -41 -18t-10 -44v-469q0 -146 57 -204t195 -58q136 0 194 57.5t58 200.5
v473zM965 1205h-91l-313 164q-56 30 -75 53t-19 55q0 40 25 65t65 25q30 0 61.5 -19t73.5 -63z" />
    <glyph glyph-name="dotlessi" unicode="&#x131;" horiz-adv-x="653" 
d="M459 88q0 -28 10 -39.5t43 -19.5v-29h-371v29q32 7 42 18t10 41v705q0 30 -10 41.5t-42 20.5v28h371v-29q-32 -8 -42.5 -20t-10.5 -41v-705z" />
    <glyph glyph-name="circumflex" unicode="&#x2c6;" 
d="M213 1012l225 348h148l225 -348h-84l-215 178l-215 -178h-84z" />
    <glyph glyph-name="tilde" unicode="&#x2dc;" 
d="M801 1333q-17 -123 -70 -184.5t-143 -61.5q-13 1 -25.5 2.5t-24.5 4.5l-104 26q-23 6 -35.5 8t-21.5 2q-32 0 -53.5 -20.5t-36.5 -67.5h-66q17 124 69.5 185t141.5 61q17 0 32.5 -2t31.5 -6l108 -27q2 0 5 -1q23 -7 34 -7q32 0 54 21t38 67h66z" />
    <glyph glyph-name="macron" unicode="&#xaf;" 
d="M236 1100v147h552v-147h-552z" />
    <glyph glyph-name="breve" unicode="&#x2d8;" 
d="M203 1329h76q17 -66 70.5 -94.5t162.5 -28.5q108 0 161.5 29t69.5 94h76q-20 -140 -99 -214.5t-208 -74.5t-208.5 74t-100.5 215z" />
    <glyph glyph-name="dotaccent" unicode="&#x2d9;" 
d="M381 1176q0 52 39.5 92.5t91.5 40.5q55 0 94 -39t39 -94q0 -57 -38 -95.5t-95 -38.5q-55 0 -93 39t-38 95z" />
    <glyph glyph-name="ring" unicode="&#x2da;" 
d="M377 1245q0 -57 39 -96t96 -39q56 0 95.5 39.5t39.5 95.5q0 55 -40 95t-95 40q-56 0 -95.5 -39.5t-39.5 -95.5zM260 1245q0 105 73.5 178.5t178.5 73.5q106 0 179 -73t73 -179t-73 -179t-179 -73t-179 73t-73 179z" />
    <glyph glyph-name="cedilla" unicode="&#xb8;" 
d="M262 -377l41 90q78 -42 133.5 -57.5t114.5 -15.5q39 0 62.5 22t23.5 59q0 43 -26 64.5t-79 21.5q-14 0 -28 -1.5t-29 -3.5v198h70v-114q8 0 25 3q36 4 48 5q79 0 129 -48t50 -125q0 -84 -60.5 -131t-169.5 -47q-57 0 -125 17.5t-180 62.5z" />
    <glyph glyph-name="hungarumlaut" unicode="&#x2dd;" 
d="M565 1012l197 280q37 55 57.5 69.5t46.5 14.5q34 0 57 -22.5t23 -55.5q0 -26 -16.5 -51.5t-48.5 -50.5l-242 -184h-74zM313 1012l144 272q29 55 51 73.5t51 18.5q33 0 55.5 -21t22.5 -52q0 -26 -13 -50.5t-38 -48.5l-199 -192h-74z" />
    <glyph glyph-name="ogonek" unicode="&#x2db;" 
d="M629 29q-91 -73 -131.5 -136t-40.5 -129q0 -53 24 -82.5t68 -29.5q36 0 63.5 17t53.5 55l32 -19q-41 -84 -99.5 -124t-139.5 -40q-64 0 -107 43.5t-43 108.5q0 83 68 168t201 168h51z" />
    <glyph glyph-name="caron" unicode="&#x2c7;" 
d="M213 1360h84l215 -178l215 178h84l-225 -348h-148z" />
    <glyph glyph-name="Lslash" unicode="&#x141;" horiz-adv-x="1386" 
d="M1186 254q29 0 41.5 10t19.5 41h29v-356h-29q-9 32 -21 41.5t-40 9.5h-1016v29q33 8 43 19.5t10 39.5v342l-213 -113v158l213 115v397q0 29 -10 40.5t-43 19.5v28h408v-28q-32 -8 -42 -19t-10 -41v-282l375 204v-164l-375 -200v-291h660z" />
    <glyph glyph-name="lslash" unicode="&#x142;" horiz-adv-x="1202" 
d="M520 883v-29q-32 -8 -42.5 -20t-10.5 -41v-207l291 149v-145l-291 -150v-221h494q48 0 58 47q1 3 1 4h29v-321h-29q-8 32 -19 41.5t-40 9.5h-814v29q33 8 43.5 19.5t10.5 39.5v258l-193 -96v145l193 99v299q0 29 -11 41t-43 20v29h373z" />
    <glyph glyph-name="Scaron" unicode="&#x160;" horiz-adv-x="1341" 
d="M1051 743q1 7 3.5 15.5t2.5 11.5q0 44 -120 81.5t-267 37.5q-121 0 -194 -32t-73 -83q1 -75 280 -89q45 -2 69 -3q260 -14 375.5 -91t115.5 -233q0 -163 -153 -266.5t-402 -103.5q-288 0 -525 86q-27 10 -32 10q-8 0 -16 -6t-25 -27l-27 12l150 328l26 -13
q-2 -3 -3.5 -7.5t-2.5 -10.5q0 -61 139 -114t316 -53q123 0 194.5 36t71.5 97q0 112 -298 123q-22 1 -34 2q-250 9 -373.5 84.5t-123.5 220.5q0 150 144.5 244t381.5 94q147 0 310 -45t172 -45q21 0 30.5 5.5t18.5 20.5l26 -12l-131 -287zM373 1553h84l215 -178l215 178h84
l-225 -348h-148z" />
    <glyph glyph-name="scaron" unicode="&#x161;" horiz-adv-x="1198" 
d="M909 608q1 3 2 8q2 11 2 15q0 35 -102.5 66.5t-224.5 31.5q-98 0 -159.5 -27.5t-61.5 -68.5q0 -62 231 -73q40 -2 62 -3q217 -11 315 -75t98 -193q0 -136 -128.5 -221.5t-338.5 -85.5q-242 0 -438 69q-25 8 -29 8q-6 0 -13.5 -5t-21.5 -21l-26 10l125 272l26 -10
q0 -1 -1 -3q-3 -9 -3 -13q0 -50 116.5 -92.5t266.5 -42.5q103 0 162 28.5t59 77.5q0 95 -260 104q-12 0 -18 1q-211 7 -314.5 70t-103.5 183q0 126 121.5 204.5t320.5 78.5q122 0 260.5 -39t149.5 -39q12 0 20.5 5.5t16.5 17.5l24 -10l-110 -238zM301 1360h84l215 -178
l215 178h84l-225 -348h-148z" />
    <glyph glyph-name="Zcaron" unicode="&#x17d;" horiz-adv-x="1415" 
d="M135 0v23l582 808h-453q-29 0 -40.5 -9.5t-18.5 -41.5h-29v348h29q8 -33 19.5 -43t39.5 -10h975v-16l-577 -803h493q30 0 41 9.5t18 41.5h29v-360h-29q-7 33 -18.5 43t-40.5 10h-1020zM410 1553h84l215 -178l215 178h84l-225 -348h-148z" />
    <glyph glyph-name="zcaron" unicode="&#x17e;" horiz-adv-x="1171" 
d="M946 219q29 0 40.5 9.5t21.5 41.5h28v-321h-28q-10 32 -21.5 41.5t-40.5 9.5h-842v18l465 646h-344q-28 0 -39.5 -10t-19.5 -42h-29v322h29q7 -32 18.5 -41.5t40.5 -9.5h807v-15l-469 -649h383zM287 1360h84l215 -178l215 178h84l-225 -348h-148z" />
    <glyph glyph-name="brokenbar" unicode="&#xa6;" 
d="M424 408h178v-758h-178v758zM424 1432h178v-758h-178v758z" />
    <glyph glyph-name="Eth" unicode="&#xd0;" horiz-adv-x="1487" 
d="M727 1075q194 0 300.5 -28t184.5 -93q83 -68 127.5 -176t44.5 -239q0 -133 -44.5 -241t-127.5 -177q-78 -65 -184.5 -93t-300.5 -28h-555v29q33 8 43 19.5t10 39.5v401h-215v144h215v354q0 29 -10 40.5t-43 19.5v28h555zM528 829v-196h271v-144h-271v-239h199
q181 0 264.5 70t83.5 221q0 150 -82.5 219t-265.5 69h-199z" />
    <glyph glyph-name="eth" unicode="&#xf0;" horiz-adv-x="1266" 
d="M612 662h-145v-162h217v-133h-217v-148h145q151 0 221 54t70 169q0 114 -69 167t-222 53zM152 0v29q31 7 41 18t10 41v279h-193v133h193v293q0 30 -10 41.5t-41 19.5v29h473q282 0 417.5 -108t135.5 -333t-136 -333.5t-417 -108.5h-473z" />
    <glyph glyph-name="Yacute" unicode="&#xdd;" horiz-adv-x="1192" 
d="M817 965q14 20 22.5 36.5t8.5 24.5q0 10 -8 16.5t-21 6.5q-2 0 -6 -1t-6 -1v28h387v-28q-31 -22 -59 -61l-9 -12l-358 -511v-375q0 -30 9.5 -41t41.5 -18v-29h-407v29q31 7 41 18t10 41v334l-375 539q-3 4 -10 14q-44 62 -82 72v28h453v-28h-9q-16 -1 -24 -6.5t-8 -16.5
q0 -6 5 -16.5t23 -38.5l189 -275zM401 1205l273 280q42 44 73.5 63t61.5 19q40 0 65 -25t25 -65q0 -32 -19 -55t-75 -53l-313 -164h-91z" />
    <glyph glyph-name="yacute" unicode="&#xfd;" horiz-adv-x="1012" 
d="M668 774q15 21 22.5 36.5t7.5 23.5t-9.5 14t-24.5 6h-11v29h348v-29q-30 -21 -58 -60q-6 -10 -9 -14l-287 -393v-299q0 -28 10 -39.5t43 -19.5v-29h-370v29q33 8 43 19.5t10 39.5v270l-295 410q-28 40 -49 59.5t-43 26.5v29h416v-29h-11q-14 0 -22 -6.5t-8 -18.5
q0 -9 6.5 -24.5t17.5 -30.5l135 -190zM311 1012l273 280q42 44 73.5 63t61.5 19q40 0 65 -25t25 -65q0 -32 -19 -55t-75 -53l-313 -164h-91z" />
    <glyph glyph-name="Thorn" unicode="&#xde;" horiz-adv-x="1356" 
d="M516 668v-242h232q125 0 181 29t56 94q0 66 -51.5 92.5t-194.5 26.5h-223zM162 0v29q31 6 41 17t10 42v899q0 31 -9.5 41.5t-41.5 18.5v28h407v-28q-32 -8 -42.5 -19.5t-10.5 -40.5v-100h328q200 0 311 -89.5t111 -250.5q0 -87 -37.5 -161t-102.5 -116
q-51 -33 -126.5 -47t-231.5 -14h-252v-121q0 -31 10.5 -42.5t42.5 -16.5v-29h-407z" />
    <glyph glyph-name="thorn" unicode="&#xfe;" horiz-adv-x="1196" 
d="M459 528v-176h188q105 0 152 21.5t47 68.5q0 48 -43 67t-164 19h-180zM193 793q0 31 -10.5 42.5t-41.5 19.5v28h371v-28q-33 -9 -43 -20.5t-10 -41.5v-74h276q170 0 262.5 -73.5t92.5 -205.5q0 -146 -97 -212t-321 -66h-213v-74q0 -31 10.5 -42.5t42.5 -16.5v-29h-371v29
q31 6 41.5 17t10.5 42v705z" />
    <glyph glyph-name="minus" unicode="&#x2212;" horiz-adv-x="1706" 
d="M254 696h1198v-170h-1198v170z" />
    <glyph glyph-name="multiply" unicode="&#xd7;" horiz-adv-x="1706" 
d="M403 1188l459 -459l461 459l117 -117l-459 -461l459 -458l-117 -119l-461 461l-459 -461l-116 119l458 458l-458 461z" />
    <glyph glyph-name="onesuperior" unicode="&#xb9;" horiz-adv-x="860" 
d="M326 428v16q22 6 28 13t6 24v379l-67 -18q-19 -7 -26.5 -15.5t-12.5 -25.5h-18v198h18q5 -17 10 -22.5t15 -5.5q6 0 10 0.5t8 1.5l63 22v25q0 17 -6 24t-28 13v16h268v-16q-22 -5 -28 -11.5t-7 -25.5v-539q0 -17 6.5 -24.5t28.5 -12.5v-16h-268z" />
    <glyph glyph-name="twosuperior" unicode="&#xb2;" horiz-adv-x="860" 
d="M702 575q19 1 26 6.5t13 24.5h19v-209l-19 1q-6 19 -13 24.5t-26 5.5h-581q-21 0 -28 -5.5t-11 -25.5h-21v9q0 95 58.5 171t181.5 142q43 23 115 56q119 54 119 97q0 34 -26.5 50t-82.5 16q-69 0 -138 -38.5t-69 -65.5q0 -4 2.5 -11.5t5.5 -13.5l-16 -10l-152 186l15 10
l6 -3q18 -9 24 -9q7 0 45.5 23t73.5 36q65 24 112.5 32.5t100.5 8.5q132 0 211.5 -56.5t79.5 -147.5q0 -71 -40.5 -117t-157.5 -98q-21 -9 -58 -24q-93 -36 -119 -65h350z" />
    <glyph glyph-name="threesuperior" unicode="&#xb3;" horiz-adv-x="860" 
d="M145 688l19 -8q-1 -2 -1.5 -5t-0.5 -9q0 -42 79 -75.5t183 -33.5q72 0 110.5 19t38.5 55q0 35 -33 51t-104 16q-49 0 -64.5 -6t-15.5 -24h-20v190h20q0 -18 14 -24.5t60 -6.5q59 0 87 14.5t28 45.5q0 28 -33 43.5t-94 15.5q-78 0 -151.5 -30t-73.5 -52q0 -4 8 -17
q1 -2 2 -3l-17 -10l-129 167l17 9q1 -1 3 -2q18 -13 27 -13q8 0 43 17q151 71 293 71q133 0 212 -52.5t79 -137.5q0 -40 -19.5 -69t-62.5 -50q61 -26 91 -64.5t30 -88.5q0 -97 -86 -151t-242 -54q-150 0 -303 54q-39 13 -49 13q-7 0 -12.5 -4.5t-12.5 -15.5l-18 8z" />
    <glyph glyph-name="onequarter" unicode="&#xbc;" horiz-adv-x="1985" 
d="M1624 221v273l-246 -273h246zM1591 0v16q20 5 25.5 11t5.5 22v60h-346q-18 0 -25 -6t-12 -25h-18v145l288 317q2 3 5 6q11 13 12 25q0 5 -4 8t-21 7v16h326v-16q-21 -5 -27 -11t-6 -22v-330h61q19 0 26 5.5t13 23.5h17v-174h-17q-6 19 -13 24.5t-26 6.5h-61v-60
q0 -16 6 -22t27 -11v-16h-236zM469 -18l883 1112h161l-884 -1112h-160zM309 473v16q21 5 27 11.5t6 21.5v355l-64 -19q-17 -5 -24.5 -13t-11.5 -24h-19v185l19 -1q5 -15 10 -19.5t14 -4.5q6 0 9.5 0.5t7.5 1.5l59 21v22q0 16 -6 22t-27 11v16h256v-16q-20 -5 -25 -10.5
t-5 -22.5v-504q0 -17 5 -22.5t25 -10.5v-16h-256z" />
    <glyph glyph-name="onehalf" unicode="&#xbd;" horiz-adv-x="1985" 
d="M1833 137q17 0 24.5 5.5t12.5 23.5h18v-195h-18q-5 18 -12 23.5t-25 5.5h-555q-18 0 -25 -5t-12 -23l-18 -1v6q0 91 54.5 161.5t172.5 133.5q40 21 107 51q116 51 116 93q0 30 -25.5 44.5t-78.5 14.5q-66 0 -131.5 -35.5t-65.5 -60.5q0 -4 2.5 -10.5t5.5 -11.5l-16 -11
l-143 174l14 10q7 -5 14.5 -8.5t14.5 -3.5q6 0 42 21.5t70 33.5q54 22 101.5 30.5t101.5 8.5q126 0 202.5 -53t76.5 -139q0 -66 -40 -109t-151 -90q-22 -10 -63 -26q-82 -32 -105 -58h334zM469 -18l883 1112h161l-884 -1112h-160zM309 473v16q21 5 27 11.5t6 21.5v355
l-64 -19q-17 -5 -24.5 -13t-11.5 -24h-19v185l19 -1q5 -15 10 -19.5t14 -4.5q6 0 9.5 0.5t7.5 1.5l59 21v22q0 16 -6 22t-27 11v16h256v-16q-20 -5 -25 -10.5t-5 -22.5v-504q0 -17 5 -22.5t25 -10.5v-16h-256z" />
    <glyph glyph-name="threequarters" unicode="&#xbe;" horiz-adv-x="1987" 
d="M1624 221v273l-246 -273h246zM1591 0v16q20 5 25.5 11t5.5 22v60h-346q-18 0 -25 -6t-12 -25h-18v145l288 317q2 3 5 6q11 13 12 25q0 5 -4 8t-21 7v16h326v-16q-21 -5 -27 -11t-6 -22v-330h61q19 0 26 5.5t13 23.5h17v-174h-17q-6 19 -13 24.5t-26 6.5h-61v-60
q0 -16 6 -22t27 -11v-16h-236zM469 -18l883 1112h161l-884 -1112h-160zM139 715l17 -6q0 -2 -1 -6.5t-1 -6.5q0 -39 75 -70.5t174 -31.5q70 0 107 17.5t37 50.5t-31 48t-100 15q-50 0 -63 -6t-13 -23h-18v178h18q0 -16 13.5 -22t56.5 -6q57 0 83.5 13.5t26.5 41.5
q0 27 -31 41t-90 14q-74 0 -144.5 -27.5t-70.5 -47.5q0 -3 9 -18q1 -2 2 -3l-17 -8l-123 156l17 8q1 -1 4 -3q16 -9 24 -9t40 15q143 66 280 66q127 0 202.5 -49t75.5 -129q0 -37 -19 -64t-61 -46q58 -24 86.5 -60t28.5 -84q0 -91 -82 -141.5t-229 -50.5q-143 0 -290 51
q-37 12 -46 12q-7 0 -12 -3.5t-13 -14.5l-16 8z" />
    <glyph glyph-name="franc" unicode="&#x20a3;" horiz-adv-x="2599" 
d="M162 0v29q32 7 41.5 18t9.5 41v899q0 30 -9.5 41t-41.5 19v28h995q29 0 40.5 10t19.5 43h28v-358h-28q-9 33 -20.5 42t-39.5 9h-641v-182h420q30 0 42 10.5t20 40.5h28v-334l-29 1q-7 30 -19 40.5t-42 10.5h-420v-320q0 -28 10 -39.5t43 -19.5v-29h-407zM1817 690v-174
h198q107 0 154 21t47 67q0 48 -43 67t-164 19h-192zM2134 883q169 0 261.5 -74.5t92.5 -208.5q0 -101 -58.5 -170.5t-170.5 -99.5l113 -180q41 -66 66.5 -89.5t58.5 -31.5v-29h-385v29q15 3 23.5 11t8.5 19q0 17 -21 53q-4 7 -5 9l-125 205h-176v-238q0 -28 10 -39.5
t43 -19.5v-29h-371v29q32 7 42 18t10 41v705q0 30 -10 41.5t-42 20.5v28h635z" />
    <glyph glyph-name="Gbreve" unicode="&#x11e;" horiz-adv-x="1516" 
d="M1417 160q-202 -100 -343.5 -139t-285.5 -39q-319 0 -506.5 152t-187.5 405q0 246 183 400.5t483 154.5q158 0 315.5 -46.5t159.5 -46.5q14 1 25 8t26 25l25 -10l-170 -319l-27 10q3 4 4.5 8.5t1.5 9.5q0 46 -101 84.5t-231 38.5q-172 0 -279.5 -90t-107.5 -234
q0 -145 102.5 -229t280.5 -84q75 0 142.5 14.5t134.5 45.5v106h-223q-30 0 -41 -9.5t-19 -41.5h-28v295h28q8 -32 19 -41.5t41 -9.5h579v-31q-32 -8 -42.5 -20t-10.5 -42v-237q0 -29 10 -40.5t43 -19.5v-28zM449 1522h76q17 -66 70.5 -94.5t162.5 -28.5q108 0 161.5 29
t69.5 94h76q-20 -140 -99 -214.5t-208 -74.5t-208.5 74t-100.5 215z" />
    <glyph glyph-name="gbreve" unicode="&#x11f;" horiz-adv-x="1307" 
d="M1200 127l-6 -3q-320 -144 -526 -144q-269 0 -426.5 126t-157.5 336q0 205 153 333t404 128q133 0 266 -39t135 -39q10 0 18 5t23 22l25 -8l-145 -266l-25 8q2 4 3 7.5t1 6.5q0 38 -82 69t-184 31q-151 0 -241.5 -72.5t-90.5 -191.5t85.5 -187.5t234.5 -68.5q63 0 116 11
t103 34v90h-164q-30 0 -41 -9.5t-19 -41.5h-28v268h28q8 -31 19 -41t41 -10h481v-32q-32 -8 -41.5 -19t-9.5 -41v-172q0 -30 10 -42t41 -20v-28zM344 1329h76q17 -66 70.5 -94.5t162.5 -28.5q108 0 161.5 29t69.5 94h76q-20 -140 -99 -214.5t-208 -74.5t-208.5 74
t-100.5 215z" />
    <glyph glyph-name="Idotaccent" unicode="&#x130;" horiz-adv-x="723" 
d="M158 0v29q32 7 41.5 18t9.5 41v899q0 30 -9.5 41t-41.5 19v28h407v-28q-33 -8 -43 -19.5t-10 -40.5v-899q0 -28 10 -39.5t43 -19.5v-29h-407zM231 1369q0 52 39.5 92.5t91.5 40.5q55 0 94 -39t39 -94q0 -57 -38 -95.5t-95 -38.5q-55 0 -93 39t-38 95z" />
    <glyph glyph-name="Scedilla" unicode="&#x15e;" horiz-adv-x="1341" 
d="M1051 743q1 7 3.5 15.5t2.5 11.5q0 44 -120 81.5t-267 37.5q-121 0 -194 -32t-73 -83q1 -75 280 -89q45 -2 69 -3q260 -14 375.5 -91t115.5 -233q0 -163 -153 -266.5t-402 -103.5q-288 0 -525 86q-27 10 -32 10q-8 0 -16 -6t-25 -27l-27 12l150 328l26 -13
q-2 -3 -3.5 -7.5t-2.5 -10.5q0 -61 139 -114t316 -53q123 0 194.5 36t71.5 97q0 112 -298 123q-22 1 -34 2q-250 9 -373.5 84.5t-123.5 220.5q0 150 144.5 244t381.5 94q147 0 310 -45t172 -45q21 0 30.5 5.5t18.5 20.5l26 -12l-131 -287zM422 -377l41 90
q78 -42 133.5 -57.5t114.5 -15.5q39 0 62.5 22t23.5 59q0 43 -26 64.5t-79 21.5q-14 0 -28 -1.5t-29 -3.5v198h70v-114q8 0 25 3q36 4 48 5q79 0 129 -48t50 -125q0 -84 -60.5 -131t-169.5 -47q-57 0 -125 17.5t-180 62.5z" />
    <glyph glyph-name="scedilla" unicode="&#x15f;" horiz-adv-x="1198" 
d="M909 608q1 3 2 8q2 11 2 15q0 35 -102.5 66.5t-224.5 31.5q-98 0 -159.5 -27.5t-61.5 -68.5q0 -62 231 -73q40 -2 62 -3q217 -11 315 -75t98 -193q0 -136 -128.5 -221.5t-338.5 -85.5q-242 0 -438 69q-25 8 -29 8q-6 0 -13.5 -5t-21.5 -21l-26 10l125 272l26 -10
q0 -1 -1 -3q-3 -9 -3 -13q0 -50 116.5 -92.5t266.5 -42.5q103 0 162 28.5t59 77.5q0 95 -260 104q-12 0 -18 1q-211 7 -314.5 70t-103.5 183q0 126 121.5 204.5t320.5 78.5q122 0 260.5 -39t149.5 -39q12 0 20.5 5.5t16.5 17.5l24 -10l-110 -238zM350 -377l41 90
q78 -42 133.5 -57.5t114.5 -15.5q39 0 62.5 22t23.5 59q0 43 -26 64.5t-79 21.5q-14 0 -28 -1.5t-29 -3.5v198h70v-114q8 0 25 3q36 4 48 5q79 0 129 -48t50 -125q0 -84 -60.5 -131t-169.5 -47q-57 0 -125 17.5t-180 62.5z" />
    <glyph glyph-name="Cacute" unicode="&#x106;" horiz-adv-x="1368" 
d="M1115 691q2 4 3.5 9t1.5 9q0 44 -102 83t-225 39q-173 0 -277 -79t-104 -209t99 -205.5t271 -75.5q99 0 168.5 17.5t143.5 58.5q20 11 26 19t6 20q0 6 -1.5 14t-3.5 17l24 14l205 -334l-27 -12q-14 13 -23.5 19.5t-15.5 6.5q-9 0 -48 -18q-213 -102 -450 -102
q-318 0 -505 152t-187 405q0 246 183 400.5t483 154.5q158 0 315.5 -46.5t159.5 -46.5q14 1 25 8t26 25l25 -10l-170 -344zM489 1205l273 280q42 44 73.5 63t61.5 19q40 0 65 -25t25 -65q0 -32 -19 -55t-75 -53l-313 -164h-91z" />
    <glyph glyph-name="cacute" unicode="&#x107;" horiz-adv-x="1186" 
d="M963 557l-25 8q2 4 3 8t1 7q0 38 -81 69t-185 31q-144 0 -231 -64.5t-87 -171.5q0 -106 83.5 -167.5t230.5 -61.5q69 0 126.5 14.5t123.5 49.5q14 8 20 15t6 15q0 7 -1.5 13t-4.5 14l25 10l174 -276l-21 -13q-16 14 -23 18.5t-14 4.5q-5 0 -34 -14q-179 -86 -379 -86
q-269 0 -426.5 126t-157.5 336q0 204 154.5 332.5t406.5 128.5q133 0 265 -39l132 -39q11 0 20 5.5t23 21.5l23 -8zM399 1012l273 280q42 44 73.5 63t61.5 19q40 0 65 -25t25 -65q0 -32 -19 -55t-75 -53l-313 -164h-91z" />
    <glyph glyph-name="Ccaron" unicode="&#x10c;" horiz-adv-x="1368" 
d="M1115 691q2 4 3.5 9t1.5 9q0 44 -102 83t-225 39q-173 0 -277 -79t-104 -209t99 -205.5t271 -75.5q99 0 168.5 17.5t143.5 58.5q20 11 26 19t6 20q0 6 -1.5 14t-3.5 17l24 14l205 -334l-27 -12q-14 13 -23.5 19.5t-15.5 6.5q-9 0 -48 -18q-213 -102 -450 -102
q-318 0 -505 152t-187 405q0 246 183 400.5t483 154.5q158 0 315.5 -46.5t159.5 -46.5q14 1 25 8t26 25l25 -10l-170 -344zM385 1553h84l215 -178l215 178h84l-225 -348h-148z" />
    <glyph glyph-name="ccaron" unicode="&#x10d;" horiz-adv-x="1186" 
d="M963 557l-25 8q2 4 3 8t1 7q0 38 -81 69t-185 31q-144 0 -231 -64.5t-87 -171.5q0 -106 83.5 -167.5t230.5 -61.5q69 0 126.5 14.5t123.5 49.5q14 8 20 15t6 15q0 7 -1.5 13t-4.5 14l25 10l174 -276l-21 -13q-16 14 -23 18.5t-14 4.5q-5 0 -34 -14q-179 -86 -379 -86
q-269 0 -426.5 126t-157.5 336q0 204 154.5 332.5t406.5 128.5q133 0 265 -39l132 -39q11 0 20 5.5t23 21.5l23 -8zM295 1360h84l215 -178l215 178h84l-225 -348h-148z" />
    <glyph glyph-name="dcroat" unicode="&#x111;" horiz-adv-x="1266" 
d="M612 662h-145v-162h217v-133h-217v-148h145q151 0 221 54t70 169q0 114 -69 167t-222 53zM152 0v29q31 7 41 18t10 41v279h-193v133h193v293q0 30 -10 41.5t-41 19.5v29h473q282 0 417.5 -108t135.5 -333t-136 -333.5t-417 -108.5h-473z" />
    <glyph glyph-name="sfthyphen" unicode="&#xad;" horiz-adv-x="668" 
d="M70 410v252h528v-252h-528z" />
    <glyph glyph-name="periodcentered" unicode="&#x2219;" horiz-adv-x="651" 
d="M166 537q0 66 47 112.5t113 46.5q65 0 111 -47t46 -112q0 -66 -45.5 -112t-111.5 -46q-68 0 -114 45t-46 113z" />
    </font>
</defs>
</svg>
